<svg xmlns="http://www.w3.org/2000/svg" xmlns:xlink="http://www.w3.org/1999/xlink" width="30" height="30" viewBox="0 0 30 30">
  <defs>
    <clipPath id="clip-path">
      <rect id="Rectangle_449" data-name="Rectangle 449" width="30" height="30" transform="translate(-8246 8024)" fill="#fff"/>
    </clipPath>
  </defs>
  <g id="Mask_Group_3" data-name="Mask Group 3" transform="translate(8246 -8024)" clip-path="url(#clip-path)">
    <path id="Icon_awesome-edit" data-name="Icon awesome-edit" d="M28.308,5.85l6.342,6.342a.687.687,0,0,1,0,.97L19.294,28.519l-6.525.724a1.368,1.368,0,0,1-1.512-1.512l.724-6.525L27.337,5.85A.687.687,0,0,1,28.308,5.85ZM39.7,4.24,36.267.809a2.75,2.75,0,0,0-3.881,0L29.9,3.3a.687.687,0,0,0,0,.97l6.342,6.342a.687.687,0,0,0,.97,0L39.7,8.121a2.75,2.75,0,0,0,0-3.881Z" transform="translate(-8256.874 8023.993)" fill="#ff744a"/>
  </g>
</svg>
