<svg xmlns="http://www.w3.org/2000/svg" xmlns:xlink="http://www.w3.org/1999/xlink" width="67.864" height="47.735" viewBox="0 0 67.864 47.735">
  <defs>
    <clipPath id="clip-path">
      <rect id="Rectangle_445" data-name="Rectangle 445" width="67.864" height="47.735" fill="#f2a54c"/>
    </clipPath>
  </defs>
  <g id="Group_992" data-name="Group 992" transform="translate(-298.14 -205.814)">
    <g id="Group_991" data-name="Group 991" transform="translate(298.14 205.814)">
      <g id="Group_990" data-name="Group 990" clip-path="url(#clip-path)">
        <path id="Path_357" data-name="Path 357" d="M67.318,38.822a33.807,33.807,0,0,0-2.232-7.8,26.325,26.325,0,0,0-5.3-8.137,29.677,29.677,0,0,0-15.076-8.044A49.124,49.124,0,0,0,33.1,13.8c-.949.008-1.113-.129-1.116-1.075-.005-1.812,0-3.624,0-5.435s.024-3.624-.02-5.435A2.239,2.239,0,0,0,31.556.582c-.658-.818-1.239-.771-2.419.127Q23.811,4.763,18.5,8.842q-5.149,3.949-10.288,7.911c-2.432,1.869-4.875,3.722-7.295,5.6C-.343,23.341-.294,24.39,1,25.371c1.09.828,2.166,1.675,3.253,2.507q7.5,5.742,15.006,11.48,5.253,4.012,10.523,8a1.286,1.286,0,0,0,2.13-.833,4.628,4.628,0,0,0,.077-1.063c0-3.294.017-6.588-.011-9.882-.007-.794.3-1.1,1.074-1.045,2.407.169,4.836.181,7.22.513a77.535,77.535,0,0,1,8.7,1.68,46.248,46.248,0,0,1,6.22,2.31A23.82,23.82,0,0,1,63.8,45.064c.658.73,1.221,1.548,1.9,2.254a1.026,1.026,0,0,0,1.776-.223,2.174,2.174,0,0,0,.385-1.141,67.523,67.523,0,0,0-.545-7.132" transform="translate(0 0)" fill="#f2a54c"/>
      </g>
    </g>
  </g>
</svg>
