<?xml version="1.0" encoding="UTF-8"?><svg id="_圖層_1" xmlns="http://www.w3.org/2000/svg" viewBox="0 0 280.63 297.64"><defs><style>.cls-1{fill:#fff;}.cls-2{fill:#d7000f;}</style></defs><rect class="cls-2" width="280.63" height="297.64"/><g><g><path class="cls-1" d="m100.5,240.72l-2.99,1.78c-2.7-2.46-4.71-4.88-6.03-7.26-1.28-2.44-2.03-5.32-2.26-8.62l-2.73-1.49-2.96,5.44c.81.37,1.74.76,2.77,1.17,1.01.32,1.99.59,2.97.82l-.36,2.99c-2.14-.56-4.26-1.3-6.37-2.22-2.04-.89-4.04-1.86-5.99-2.92l1.24-2.74,2.53,1.38,3.06-5.61-2.53-1.38,1.34-2.46,2.92,1.59,4.97-9.12c.1-.17.21-.3.34-.39.16.01.34.07.53.18l17.35,9.45-1.43,2.63-14.62-7.96c-.33-.18-.53-.18-.63,0-.1.18-.14.34-.14.49l14.23,7.75-1.24,2.28-14.23-7.75-.48.88,14.23,7.75-1.24,2.28-14.23-7.75-.48.88,16.38,8.92-1.34,2.46-2.73-1.49.21,1.93c-1,.14-1.97.22-2.91.24-.97.08-1.91.1-2.81.06.66,1.12,1.49,2.14,2.5,3.07.98.99,2.04,1.9,3.18,2.75Zm-1.92-9.01l-6.04-3.29c.1.43.25,1.01.45,1.72.17.77.32,1.35.45,1.72.84,0,1.7-.02,2.57-.08.84,0,1.7-.02,2.57-.08Z"/><path class="cls-1" d="m116.96,239.02c-.41,1.15-.9,2.32-1.46,3.51-.48,1.14-1.04,2.29-1.68,3.47l-2.94-1.28c.48-1.14.97-2.31,1.46-3.51.48-1.14.97-2.31,1.46-3.51l3.16,1.32Zm9.3-.53l-3.2.3-.22-1.45-1.79-.08-1.7,10.65-3.29-.53,1.64-10.26-4.67-.34c0-.47-.04-.95-.11-1.43-.07-.48-.11-.96-.11-1.43l2.88.26c.34-.28.64-.5.89-.67.33-.22.63-.44.89-.67-.64-.71-1.28-1.38-1.92-2.03-.65-.64-1.3-1.25-1.96-1.83l1.91-2.12c.21.1.38.23.5.38.21.1.38.23.5.38.48-.67.96-1.3,1.43-1.9.48-.66.96-1.3,1.43-1.9l2.63,1.84c-.48.66-1.04,1.35-1.68,2.06-.55.65-1.11,1.34-1.68,2.06.21.1.41.23.61.4.2.17.39.37.58.6.56-.72,1.13-1.47,1.71-2.26.56-.72,1.06-1.48,1.49-2.29l2.91,1.48c-.4.61-.84,1.28-1.33,2.01-.56.72-1.16,1.37-1.77,1.94-.16.04-.29.16-.39.34-.17.11-.3.22-.39.34l2.76-.37c.28,1.06.56,2.15.83,3.27.28,1.06.48,2.13.61,3.23Zm-4.07-4.09c-.1-.29-.21-.57-.31-.86-.1-.29-.21-.57-.31-.86-.26.23-.53.49-.8.78-.26.23-.53.49-.8.78l2.22.15Zm2.8,10.57l-3.38.07-.24-5.5,3.2-.3.43,5.73Zm11.93,5.55l-13.59-2.18.47-2.96,5.04.81,2.49-15.59-4.82-.77.44-2.76,13.15,2.11-.44,2.76-4.82-.77-2.49,15.59,5.04.81-.47,2.96Z"/><path class="cls-1" d="m174.17,238.8l-10.27,1.83,1.33,7.47-3.5.62-1.33-7.47-11.36,2.02-.53-2.95,11.36-2.02-1.02-5.7-6.34,1.13c-.31.8-.69,1.61-1.15,2.44-.38.81-.84,1.64-1.36,2.47l-3.16-1.26c1.25-1.85,2.12-3.49,2.62-4.93.41-1.49.66-3.23.76-5.21l3.35-.19c-.04.62-.09,1.2-.14,1.75-.04.62-.09,1.2-.14,1.75l5.03-.9-.7-3.93,3.5-.62.7,3.93,9.18-1.63.53,2.95-9.18,1.63,1.02,5.7,10.27-1.83.53,2.95Z"/><path class="cls-1" d="m190.59,228.14c-.35.43-.7.86-1.06,1.29-.35.43-.7.86-1.06,1.29l3.55,6.26c.33.73.35,1.45.07,2.14-.38.68-.88,1.23-1.49,1.65-.42.16-.84.32-1.26.48-.42.16-.84.32-1.26.48l-1.67-2.5c.26-.15.58-.25.97-.32.29-.09.61-.2.97-.32.16-.17.24-.33.24-.48.06-.19.04-.37-.05-.54l-2.47-4.34c-.29.24-.56.51-.82.81-.35.28-.63.55-.82.81l-2.44-2.06c.38-.37.82-.73,1.3-1.08.38-.37.82-.73,1.3-1.08l-2.47-4.34-2.12,1.21-1.48-2.61,2.12-1.21-1.87-3.3,2.9-1.64,1.87,3.3,1.93-1.1,1.48,2.61-1.93,1.1,1.87,3.3c.19-.26.37-.48.53-.64.19-.26.37-.48.53-.64l2.63,1.49Zm7.36-1.88c.92,1.77,1.23,3.59.92,5.45-.31,1.86-1.1,3.69-2.38,5.48l-3.21-1.16c.77-.9,1.36-1.8,1.77-2.73.41-.92.61-1.92.6-2.98-.48.5-.96,1-1.44,1.51-.48.5-.96,1.01-1.44,1.51l-2.63-1.49c.74-.8,1.44-1.58,2.11-2.35.64-.82,1.34-1.61,2.11-2.35l-1.08-1.91-3.28,1.86-1.38-2.43,3.28-1.86-1.48-2.61-3.47,1.97-1.48-2.61,3.48-1.97-1.28-2.26,3.09-1.75,7.2,12.68Zm9.78-2.1l-4.25,2.41,2.76,4.86-2.9,1.64-11.54-20.33,2.9-1.64,1.38,2.43,3.86-2.19,1.48,2.61-3.86,2.19,1.48,2.61,3.67-2.08,1.38,2.43-3.67,2.08,1.68,2.95,4.25-2.41,1.38,2.43Z"/></g><g><g><path class="cls-1" d="m143.47,115.12c0-1.09-.43-2.12-1.2-2.89-.2-.2-.42-.38-.65-.53-1.34-.87-3.11-.9-4.48,0-.25.17-.46.34-.64.52l-6.31,6.31-6.29-6.29c-1.6-1.59-4.2-1.59-5.79,0-.76.75-1.2,1.8-1.2,2.9,0,1.11.42,2.13,1.18,2.88l6.31,6.31-6.29,6.29c-1.59,1.6-1.59,4.2,0,5.79.75.76,1.8,1.2,2.9,1.2,1.11,0,2.13-.42,2.88-1.18l6.31-6.3,6.29,6.29c.77.77,1.8,1.19,2.9,1.2,1.1,0,2.12-.43,2.89-1.2.2-.2.38-.42.53-.65.87-1.33.9-3.1,0-4.48-.17-.25-.34-.46-.52-.64l-6.31-6.31,6.29-6.29c.77-.77,1.19-1.8,1.2-2.9Z"/><path class="cls-1" d="m194.9,54.77c.73,0,1.61.31,2.57.97,13.84,9.53,17.4,37.48-12.55,51.28-1.34.62-2.2,1.96-2.22,3.44,0,.03,0,.06,0,.08-.03,2.23,1.79,3.88,3.86,3.88.46,0,.93-.08,1.4-.26,2-.75,4.18-.78,6.45-.78,6.28,0,11.81,3.71,15.05,6.47,1.79,1.53,1.79,4.31,0,5.83-3.24,2.75-8.77,6.47-15.05,6.47-2.73,0-5.32-.7-7.65-1.73-.52-.23-1.06-.34-1.58-.34-1.87,0-3.59,1.37-3.82,3.39-.64,5.55-1.58,11.17-2.95,15.92-.36,1.24-.09,2.58.74,3.58,2.96,3.53,4.64,7.56,4.64,11.84,0,13.98-17.92,25.31-40.02,25.31s-40.02-11.33-40.02-25.31c0-4.28,1.68-8.31,4.64-11.84.83-.99,1.1-2.33.74-3.58-1.38-4.76-2.31-10.37-2.95-15.92-.23-2.02-1.95-3.39-3.82-3.39-.52,0-1.06.11-1.58.34-2.32,1.02-4.91,1.73-7.65,1.73-6.28,0-11.81-3.71-15.05-6.47-1.79-1.52-1.79-4.3,0-5.83,3.24-2.75,8.77-6.47,15.05-6.47,2.27,0,4.45.03,6.45.78.47.17.94.26,1.4.26,2.06,0,3.88-1.65,3.86-3.88,0-.03,0-.06,0-.08-.02-1.47-.87-2.82-2.2-3.43-21.18-9.75-25.61-23.58-21.5-37.73,1.7-5.87,4.88-10.76,8.94-13.56.96-.66,1.84-.97,2.57-.97,1.17,0,1.99.79,2.25,2.18,2.61,13.85,9.36,20.86,16.75,27.05.71.59,1.59.9,2.48.9.58,0,1.16-.13,1.7-.4,5.39-2.71,14.46-5.94,27.75-6.54.06,0,.13,0,.19,0s.13,0,.19,0c13.29.6,22.36,3.82,27.75,6.54.54.27,1.12.4,1.7.4.89,0,1.77-.31,2.48-.9,7.39-6.18,14.14-13.19,16.75-27.05.26-1.39,1.08-2.18,2.25-2.18m0-7.64c-4.89,0-8.81,3.38-9.76,8.4-2.01,10.63-6.85,16.25-12.31,21.04-6.12-2.73-15.54-5.66-28.51-6.24-.18,0-.36-.01-.53-.01s-.36,0-.54.01c-12.97.58-22.39,3.51-28.51,6.24-5.46-4.79-10.31-10.41-12.31-21.04-.95-5.03-4.87-8.4-9.76-8.4-2.35,0-4.67.78-6.9,2.32-5.48,3.77-9.72,10.06-11.94,17.72-2.75,9.48-2.16,18.26,1.78,26.08,2.49,4.94,6.29,9.39,11.36,13.3-5.72,1.46-10.48,4.68-13.79,7.49-2.57,2.18-4.04,5.37-4.04,8.74,0,3.37,1.47,6.55,4.04,8.74,4.45,3.78,11.52,8.29,19.99,8.29,2,0,4.03-.26,6.06-.76.58,3.95,1.28,7.51,2.09,10.63-3.39,4.63-5.18,9.83-5.18,15.15,0,4.96,1.49,9.7,4.43,14.1,2.61,3.91,6.26,7.36,10.84,10.26,8.77,5.54,20.27,8.6,32.38,8.6s23.62-3.05,32.38-8.6c4.58-2.9,8.23-6.35,10.84-10.26,2.94-4.4,4.43-9.14,4.43-14.1,0-5.32-1.78-10.52-5.18-15.15.81-3.13,1.51-6.69,2.09-10.63,2.03.51,4.06.76,6.06.76,8.47,0,15.55-4.51,19.99-8.29,2.57-2.18,4.04-5.36,4.04-8.74,0-3.37-1.47-6.55-4.04-8.74-3.36-2.86-8.23-6.13-14.07-7.56,2.88-2.34,5.39-4.91,7.5-7.7,4.3-5.69,6.89-12.3,7.47-19.09,1.03-12.01-4.27-23.87-13.5-30.23-2.24-1.54-4.56-2.32-6.9-2.32h0Z"/></g><g><path class="cls-1" d="m248.03,77.69c0-1.05,0-2.05-.09-3.04-.17-1.84-.84-2.28-1.53-2.48-.22-.06-.44-.1-.65-.1-.67,0-1.33.38-2.12,1.57-.37.55-.68,1.15-1.01,1.79-.1.2-.2.39-.31.59-3.45,6.48-6.01,13.95-7.83,22.81-2.47,12.06-.9,21.1,4.94,28.45,1.23,1.54,1.69,3.31,1.46,5.56-1.34,13.33-2.62,27.12-3.76,39.28-.31,3.34,1.2,5.63,3.95,5.98,3.64.46,5.88-1.17,6.48-4.71.28-1.65.42-3.44.42-5.46.03-11.36.02-22.92.02-34.09,0-3.49,0-6.98,0-10.46v-1.26h.02v-7.8c0-12.07,0-24.14,0-36.22v-.41Z"/><path class="cls-1" d="m58.09,91.37c-.22-5.35-.45-10.89-1.29-16.25-.26-1.62-.62-2.19-1.64-2.55-.01,0-.03,0-.04-.01-.93-.33-1.92.34-1.96,1.33,0,.16-.01.35-.02.54-.05,2.87-.05,5.79-.04,8.61,0,2.55,0,5.19-.03,7.79,0,.62-.15,2.16-1.23,3.17-.62.58-1.43.85-2.34.79-2.3-.14-2.16-2.54-2.11-3.45.01-.19.02-.38.02-.52-.03-3.42-.03-6.89-.03-10.24,0-2.06,0-4.11,0-6.17,0-.93-.06-1.85-.43-2.21-.28-.28-.87-.33-1.33-.32h-.02s-.02,0-.02,0c-.45,0-1.05.05-1.33.32-.37.36-.42,1.28-.43,2.21,0,2.06,0,4.13,0,6.19,0,3.35,0,6.81-.03,10.22,0,.14,0,.33.02.52.05.9.19,3.31-2.11,3.45-.91.06-1.72-.22-2.34-.79-1.08-1.01-1.22-2.55-1.23-3.17-.04-2.6-.03-5.24-.03-7.79,0-2.83,0-5.75-.04-8.61-.03-1.79-.25-2.14-.32-2.21h0s-.05-.01-.16-.01c-.21,0-.66.05-1.55.37-1.01.36-1.38.93-1.64,2.55-.85,5.37-1.08,10.9-1.3,16.25-.1,2.55-.21,5.19-.39,7.79-.44,6.64.49,11.31,5.63,14.7,2.93,1.93,4.28,4.55,4.23,8.25-.07,5.68-.57,11.39-1.05,16.92-.37,4.25-.76,8.65-.94,12.97-.31,7.29-1.6,15.07.21,22.66.49,2.06,3.09,3.06,4.51,3.35.19.04.39.04.58,0,1.41-.29,4.02-1.29,4.51-3.35,1.81-7.59.52-15.38.21-22.66-.18-4.32-.57-8.72-.94-12.97-.48-5.53-.98-11.24-1.05-16.92-.05-3.7,1.3-6.32,4.23-8.25,5.15-3.39,6.08-8.06,5.63-14.7-.17-2.6-.28-5.23-.39-7.78Z"/></g></g></g></svg>