<?xml version="1.0" encoding="UTF-8"?><svg id="_圖層_1" xmlns="http://www.w3.org/2000/svg" viewBox="0 0 280.63 297.64"><defs><style>.cls-1,.cls-2{fill:#fff;}.cls-3{fill:#d7000f;}.cls-2{stroke:#fff;stroke-miterlimit:10;stroke-width:1.28px;}</style></defs><rect class="cls-3" width="280.63" height="297.64"/><g><path class="cls-1" d="m136.39,121.94l-5.17,8.82c-10.35-2.55-18.86-5.98-25.54-10.29-6.68-4.51-12.61-10.87-17.78-19.1h-9.05v18.22c2.59-.2,5.5-.49,8.73-.88,3.02-.59,5.93-1.27,8.73-2.06l3.23,8.23c-6.25,1.57-12.72,2.65-19.4,3.23-6.47.59-12.93.88-19.4.88l-.65-8.82h8.41v-18.81h-8.41v-8.23h9.7v-30.57c0-.59.11-1.08.32-1.47.43-.19.97-.29,1.62-.29h57.55v8.82h-48.49c-1.08,0-1.62.29-1.62.88s.11,1.08.32,1.47h47.2v7.64h-47.2v2.94h47.2v7.64h-47.2v2.94h54.31v8.23h-9.05l3.23,4.7c-2.37,1.76-4.74,3.33-7.11,4.7-2.37,1.57-4.74,2.94-7.11,4.11,3.23,1.96,6.79,3.43,10.67,4.41,3.88,1.18,7.87,2.06,11.96,2.65Zm-17.46-20.57h-20.04c.86.98,2.05,2.25,3.56,3.82,1.51,1.76,2.69,3.04,3.56,3.82,2.15-1.18,4.31-2.45,6.47-3.82,2.15-1.18,4.31-2.45,6.47-3.82Z"/><path class="cls-1" d="m158.64,103.72c-.65,3.53-1.51,7.15-2.59,10.87-.86,3.53-1.94,7.15-3.23,10.87l-9.05-2.35c.86-3.53,1.72-7.15,2.59-10.87.86-3.53,1.72-7.15,2.59-10.87l9.7,2.35Zm26.51-5.88l-9.05,2.35-1.29-4.11-5.17.59v31.74h-9.7v-30.57l-13.58,1.18c-.22-1.37-.54-2.74-.97-4.11-.43-1.37-.76-2.74-.97-4.11l8.41-.59c.86-.98,1.62-1.76,2.26-2.35.86-.78,1.62-1.57,2.26-2.35-2.16-1.76-4.31-3.43-6.47-5-2.16-1.57-4.31-3.04-6.47-4.41l4.53-7.05c.65.2,1.18.49,1.62.88.65.2,1.18.49,1.62.88,1.08-2.16,2.15-4.21,3.23-6.17,1.08-2.16,2.15-4.21,3.23-6.17l8.41,4.11c-1.08,2.16-2.37,4.41-3.88,6.76-1.29,2.16-2.59,4.41-3.88,6.76.65.2,1.29.49,1.94.88.65.39,1.29.88,1.94,1.47,1.29-2.35,2.59-4.8,3.88-7.35,1.29-2.35,2.37-4.8,3.23-7.35l9.05,2.94c-.86,1.96-1.83,4.11-2.91,6.47-1.29,2.35-2.7,4.51-4.2,6.47-.43.2-.76.59-.97,1.18-.43.39-.76.78-.97,1.18l7.76-2.35c1.29,2.94,2.59,5.98,3.88,9.11,1.29,2.94,2.37,5.98,3.23,9.11Zm-13.58-9.99c-.43-.78-.86-1.57-1.29-2.35-.43-.78-.86-1.57-1.29-2.35-.65.78-1.29,1.67-1.94,2.65-.65.78-1.29,1.67-1.94,2.65l6.47-.59Zm12.93,29.39l-9.7,1.76-3.23-15.87,9.05-2.35,3.88,16.46Zm36.86,10.58h-40.09v-8.82h14.87v-46.44h-14.23v-8.23h38.8v8.23h-14.23v46.44h14.87v8.82Z"/><path class="cls-1" d="m134.46,196.95h-30.39v22.34h-10.35v-22.34h-33.62v-8.82h33.62v-17.05h-18.75c-1.29,2.16-2.8,4.31-4.53,6.47-1.51,2.16-3.23,4.31-5.17,6.47l-8.41-5.29c4.53-4.7,7.87-9.01,10.02-12.93,1.94-4.11,3.56-9.01,4.85-14.7l9.7,1.18c-.43,1.76-.86,3.43-1.29,5-.43,1.76-.86,3.43-1.29,5h14.87v-11.76h10.35v11.76h27.16v8.82h-27.16v17.05h30.39v8.82Z"/><path class="cls-1" d="m172.22,188.13c-1.51.59-3.02,1.18-4.53,1.76-1.51.59-3.02,1.18-4.53,1.76v21.16c-.22,2.35-1.19,4.21-2.91,5.58-1.94,1.18-3.99,1.86-6.14,2.06-1.29-.2-2.59-.39-3.88-.59-1.29-.2-2.59-.39-3.88-.59l-.65-8.82c.86,0,1.83.19,2.91.59.86.19,1.83.39,2.91.59.65-.2,1.08-.49,1.29-.88.43-.39.65-.88.65-1.47v-14.7c-1.08.2-2.16.49-3.23.88-1.29.2-2.37.49-3.23.88l-3.23-8.82c1.51-.39,3.12-.69,4.85-.88,1.51-.39,3.12-.69,4.85-.88v-14.7h-7.11v-8.82h7.11v-11.17h9.7v11.17h6.47v8.82h-6.47v11.17c.86-.39,1.62-.69,2.26-.88.86-.39,1.62-.69,2.26-.88l4.53,7.64Zm21.34,5.88c-.22,5.88-2.05,10.97-5.5,15.28-3.45,4.31-8.08,7.84-13.9,10.58l-6.47-7.64c3.23-1.18,6.03-2.65,8.41-4.41,2.37-1.76,4.31-4.02,5.82-6.76-1.94.59-3.88,1.18-5.82,1.76-1.94.59-3.88,1.18-5.82,1.76l-4.53-7.64c3.02-.98,5.93-1.96,8.73-2.94,2.8-1.18,5.71-2.16,8.73-2.94v-6.47h-10.99v-8.23h10.99v-8.82h-11.64v-8.82h11.64v-7.64h10.35v42.91Zm27.8,8.82h-14.23v16.46h-9.7v-68.77h9.7v8.23h12.93v8.82h-12.93v8.82h12.29v8.23h-12.29v9.99h14.23v8.23Z"/><path class="cls-2" d="m55.28,238.95v-9.99h5.88v1.82h-3.76v2.06h3.76v1.82h-3.76v2.53h3.76v1.76h-5.88Z"/><path class="cls-2" d="m66.84,238.95l-3.64-9.99h2.29l1.94,6.29c.04.08.1.27.18.59.04.27.12.71.24,1.29.08-.47.14-.88.18-1.23.08-.31.16-.57.24-.76l2-6.17h2.35l-3.7,9.99h-2.06Z"/><path class="cls-2" d="m74.65,238.95v-9.99h5.88v1.82h-3.76v2.06h3.76v1.82h-3.76v2.53h3.76v1.76h-5.88Z"/><path class="cls-2" d="m89.8,238.95h-2.47l-2.65-4.64v4.64h-2.12v-9.99h3.06c1.18,0,2.06.24,2.65.71.63.47.94,1.18.94,2.12-.04.71-.25,1.29-.65,1.76-.39.47-.9.76-1.53.88l2.76,4.53Zm-5.11-5.7h.29c.67,0,1.2-.08,1.59-.24.35-.16.55-.51.59-1.06-.04-.59-.23-.96-.59-1.12-.39-.2-.92-.27-1.59-.24h-.29v2.65Z"/><path class="cls-2" d="m103.47,238.95h-2.47l-2.65-4.64v4.64h-2.12v-9.99h3.06c1.18,0,2.06.24,2.65.71.63.47.94,1.18.94,2.12-.04.71-.25,1.29-.65,1.76-.39.47-.9.76-1.53.88l2.76,4.53Zm-5.11-5.7h.29c.67,0,1.2-.08,1.59-.24.35-.16.55-.51.59-1.06-.04-.59-.24-.96-.59-1.12-.39-.2-.92-.27-1.59-.24h-.29v2.65Z"/><path class="cls-2" d="m105.51,238.95v-9.99h5.88v1.82h-3.76v2.06h3.76v1.82h-3.76v2.53h3.76v1.76h-5.88Z"/><path class="cls-2" d="m113.44,238.95v-9.99h2.7c.86-.04,1.63.02,2.29.18.67.12,1.29.39,1.88.82.59.43,1.04.98,1.35,1.65.31.71.49,1.51.53,2.41-.04.86-.22,1.65-.53,2.35-.35.67-.82,1.23-1.41,1.7-.59.39-1.21.65-1.88.76-.67.08-1.35.12-2.06.12h-2.88Zm2.12-1.76h1.18c1.06,0,1.86-.25,2.41-.76.55-.51.82-1.33.82-2.47s-.27-1.96-.82-2.47c-.55-.51-1.35-.74-2.41-.71h-1.18v6.41Z"/><path class="cls-2" d="m128.64,237.71l1.12-1.35c.16.35.41.63.76.82.31.2.69.31,1.12.35.51-.04.9-.18,1.18-.41.27-.24.43-.53.47-.88-.04-.43-.24-.76-.59-1-.39-.2-.94-.47-1.65-.82-.74-.35-1.31-.74-1.7-1.18-.39-.43-.59-1-.59-1.7,0-.82.31-1.51.94-2.06.59-.51,1.45-.76,2.59-.76.55-.04,1.06.06,1.53.29.47.24.88.59,1.23,1.06l-1.29,1.18c-.16-.31-.37-.53-.65-.65-.24-.16-.53-.22-.88-.18-.43,0-.78.1-1.06.29-.24.16-.35.43-.35.82,0,.43.2.76.59,1,.39.2.88.41,1.47.65.82.35,1.43.78,1.82,1.29.43.47.65,1.04.65,1.7-.04.86-.35,1.57-.94,2.12-.63.55-1.49.84-2.59.88-.82,0-1.49-.14-2-.41-.55-.24-.94-.59-1.18-1.06Z"/><path class="cls-2" d="m142,230.77v8.17h-2.18v-8.17h-2.41v-1.82h7.05v1.82h-2.47Z"/><path class="cls-2" d="m146.51,238.95v-9.99h5.88v1.82h-3.76v2.06h3.76v1.82h-3.76v2.53h3.76v1.76h-5.88Z"/><path class="cls-2" d="m154.43,238.95l3.7-9.99h2.47l3.88,9.99h-2.41l-.82-2.12h-3.88l-.71,2.12h-2.23Zm6.29-3.76l-1.12-3.23c-.04-.12-.08-.29-.12-.53-.04-.2-.1-.47-.18-.82-.08.35-.14.65-.18.88-.08.24-.12.39-.12.47l-1.06,3.23h2.76Z"/><path class="cls-2" d="m166.56,238.95v-9.99h2.12v4.58l3.29-4.58h2.47l-3.59,4.58,3.76,5.41h-2.59l-3.35-5.23v5.23h-2.12Z"/><path class="cls-2" d="m176.65,238.95v-9.99h2.12v4.06h4.35v-4.06h2.12v9.99h-2.12v-4.17h-4.35v4.17h-2.12Z"/><path class="cls-2" d="m197.95,234.01c0,.71-.14,1.37-.41,2-.24.63-.61,1.2-1.12,1.7-.55.47-1.14.82-1.76,1.06-.63.27-1.29.41-2,.41-.63,0-1.23-.1-1.82-.29-.59-.2-1.12-.49-1.59-.88-.63-.51-1.12-1.12-1.47-1.82-.31-.67-.47-1.39-.47-2.17s.12-1.43.35-2.06c.27-.63.67-1.18,1.18-1.65.51-.51,1.1-.9,1.76-1.18.63-.27,1.31-.41,2.06-.41.71,0,1.37.14,2,.41.67.27,1.25.67,1.76,1.18.51.47.88,1.02,1.12,1.65.27.63.41,1.31.41,2.06Zm-5.29,3.35c.94-.04,1.69-.37,2.23-1,.55-.67.84-1.45.88-2.35-.04-.98-.33-1.78-.88-2.41-.59-.67-1.33-1-2.23-1-.98,0-1.74.33-2.29,1-.59.63-.88,1.43-.88,2.41,0,.9.27,1.68.82,2.35.55.63,1.33.96,2.35,1Z"/><path class="cls-2" d="m208.66,228.95v6.29c0,1.29-.37,2.27-1.12,2.94-.71.67-1.78,1-3.23,1s-2.53-.33-3.23-1c-.74-.67-1.1-1.65-1.06-2.94v-6.29h2.12v5.94c0,.82.18,1.43.53,1.82.35.43.9.65,1.65.65.71,0,1.25-.22,1.65-.65.35-.39.55-1,.59-1.82v-5.94h2.12Z"/><path class="cls-2" d="m210.7,237.71l1.12-1.35c.16.35.41.63.76.82.31.2.69.31,1.12.35.51-.04.9-.18,1.18-.41.27-.24.43-.53.47-.88-.04-.43-.24-.76-.59-1-.39-.2-.94-.47-1.65-.82-.74-.35-1.31-.74-1.7-1.18-.39-.43-.59-1-.59-1.7,0-.82.31-1.51.94-2.06.59-.51,1.45-.76,2.59-.76.55-.04,1.06.06,1.53.29.47.24.88.59,1.23,1.06l-1.29,1.18c-.16-.31-.37-.53-.65-.65-.24-.16-.53-.22-.88-.18-.43,0-.78.1-1.06.29-.24.16-.35.43-.35.82,0,.43.2.76.59,1,.39.2.88.41,1.47.65.82.35,1.43.78,1.82,1.29.43.47.65,1.04.65,1.7-.04.86-.35,1.57-.94,2.12-.63.55-1.49.84-2.59.88-.82,0-1.49-.14-2-.41-.55-.24-.94-.59-1.18-1.06Z"/><path class="cls-2" d="m219.48,238.95v-9.99h5.88v1.82h-3.76v2.06h3.76v1.82h-3.76v2.53h3.76v1.76h-5.88Z"/></g></svg>