<svg id="Group_1123" data-name="Group 1123" xmlns="http://www.w3.org/2000/svg" xmlns:xlink="http://www.w3.org/1999/xlink" width="651.355" height="614.381" viewBox="0 0 651.355 614.381">
  <defs>
    <clipPath id="clip-path">
      <rect id="Rectangle_833" data-name="Rectangle 833" width="651.355" height="614.381" fill="none"/>
    </clipPath>
    <clipPath id="clip-path-3">
      <rect id="Rectangle_831" data-name="Rectangle 831" width="56.272" height="70.052" fill="none"/>
    </clipPath>
  </defs>
  <g id="Group_1122" data-name="Group 1122" clip-path="url(#clip-path)">
    <path id="Path_377" data-name="Path 377" d="M157.455,204.577,146.3,222.644l-3.669,5.16,19.71,10.646,13.315-21.918Z" transform="translate(176.498 253.152)" fill="#efc79c"/>
    <g id="Group_1121" data-name="Group 1121">
      <g id="Group_1120" data-name="Group 1120" clip-path="url(#clip-path)">
        <path id="Path_378" data-name="Path 378" d="M172.327,122.422s118.732,37.249,135.1,57.106-90.531,150.6-90.531,150.6l-24.453-14.646s34.81-85.772,65.056-100.81C263.532,204.31,201.734,197,149.584,193.75s-42.458-34.342-25.616-72.484c30.534-13.064,48.36,1.157,48.36,1.157" transform="translate(136.795 143.227)" fill="#243133"/>
        <path id="Path_379" data-name="Path 379" d="M132.065,62.568S144.635,36.7,146.371,21.8c18.164,23.567,32.91,34.915,33.253,35.944-14.438,15.429-17.667,39.383-17.667,39.383Z" transform="translate(163.423 26.972)" fill="#f7c58d"/>
        <path id="Path_380" data-name="Path 380" d="M82.133,178.288l-19.721-.027a16.861,16.861,0,0,0-13.595,6.86l-16.642,22.6a16.857,16.857,0,0,0-.662,19.029l8.209,12.935Z" transform="translate(35.749 220.587)" fill="#f35"/>
        <path id="Path_381" data-name="Path 381" d="M30.466,215.438l16.642-22.6a16.861,16.861,0,0,1,13.595-6.86L76.776,186l5.332-7.717-19.721-.027a16.855,16.855,0,0,0-13.595,6.86l-16.642,22.6a16.786,16.786,0,0,0-3.238,10.344,16.69,16.69,0,0,1,1.553-2.622" transform="translate(35.774 220.587)" fill="#ff7190"/>
        <path id="Path_382" data-name="Path 382" d="M372.99,282.544a74.019,74.019,0,1,1-73.921-74.117,74.018,74.018,0,0,1,73.921,74.117" transform="translate(278.364 257.916)" fill="#333"/>
        <path id="Path_383" data-name="Path 383" d="M346.743,273.174A57.119,57.119,0,1,1,289.7,215.981a57.118,57.118,0,0,1,57.044,57.193" transform="translate(287.712 267.264)" fill="#ffecc5"/>
        <path id="Path_384" data-name="Path 384" d="M326.32,265.884a43.968,43.968,0,1,1-43.91-44.026,43.966,43.966,0,0,1,43.91,44.026" transform="translate(294.986 274.536)" fill="#e2e2e2"/>
        <path id="Path_385" data-name="Path 385" d="M316.887,262.517a37.894,37.894,0,1,1-37.844-37.945,37.894,37.894,0,0,1,37.844,37.945" transform="translate(298.344 277.894)" fill="#a5a5a5"/>
        <rect id="Rectangle_830" data-name="Rectangle 830" width="17.43" height="88.312" transform="translate(539.678 463.02) rotate(-20.303)" fill="#e2e2e2"/>
        <path id="Path_386" data-name="Path 386" d="M275.773,247.842a11.422,11.422,0,1,1-11.4-11.438,11.42,11.42,0,0,1,11.4,11.438" transform="translate(312.984 292.536)" fill="#333"/>
        <path id="Path_387" data-name="Path 387" d="M267.036,244.722a5.8,5.8,0,1,1-5.788-5.8,5.8,5.8,0,0,1,5.788,5.8" transform="translate(316.097 295.647)" fill="#7f7f7f"/>
        <path id="Path_388" data-name="Path 388" d="M187.21,282.3a74.019,74.019,0,1,1-73.921-74.117A74.018,74.018,0,0,1,187.21,282.3" transform="translate(48.473 257.613)" fill="#333"/>
        <path id="Path_389" data-name="Path 389" d="M160.963,272.93a57.119,57.119,0,1,1-57.046-57.193,57.119,57.119,0,0,1,57.046,57.193" transform="translate(57.821 266.96)" fill="#ffecc5"/>
        <path id="Path_390" data-name="Path 390" d="M140.539,265.639a43.968,43.968,0,1,1-43.91-44.026,43.966,43.966,0,0,1,43.91,44.026" transform="translate(65.093 274.233)" fill="#e2e2e2"/>
        <path id="Path_391" data-name="Path 391" d="M131.106,262.273a37.894,37.894,0,1,1-37.844-37.945,37.894,37.894,0,0,1,37.844,37.945" transform="translate(68.451 277.592)" fill="#a5a5a5"/>
        <path id="Path_392" data-name="Path 392" d="M89.993,247.6a11.422,11.422,0,1,1-11.406-11.438A11.422,11.422,0,0,1,89.993,247.6" transform="translate(83.093 292.233)" fill="#333"/>
        <path id="Path_393" data-name="Path 393" d="M81.256,244.478a5.8,5.8,0,1,1-5.788-5.8,5.8,5.8,0,0,1,5.788,5.8" transform="translate(86.205 295.345)" fill="#7f7f7f"/>
        <path id="Path_394" data-name="Path 394" d="M242.243,261.543s60.621-29.787,124.968-13.223c-.472-33.472-26.16-78.821-102.909-60.384s-22.059,73.607-22.059,73.607" transform="translate(276.389 227.286)" fill="#ffb206"/>
        <path id="Path_395" data-name="Path 395" d="M258.672,189.661c-13.123,3.153-22.377,7.384-28.74,12.225a28.247,28.247,0,0,0-5.567,8.149c6.251-4.2,14.859-7.876,26.57-10.69,64.6-15.517,92.992,14.152,100.651,43.894,3.224.51,6.466,1.119,9.726,1.85-2.837-32.774-29.617-72.97-102.64-55.428" transform="translate(277.638 229.421)" fill="#ffcf03"/>
        <path id="Path_396" data-name="Path 396" d="M226.459,84.809s16.331,28.816,1.354,49.9c-12.872-3.186-1.354-49.9-1.354-49.9" transform="translate(274.363 104.946)" fill="#efefef"/>
        <path id="Path_397" data-name="Path 397" d="M280.216,285.38l24.151-6.831s-22.477-68.132-81.649-170.1c-5.251,2.28-11.181,4.095-11.181,4.095Z" transform="translate(261.766 134.198)" fill="#ffb206"/>
        <path id="Path_398" data-name="Path 398" d="M201.939,113.5s51.2,122.325,21.227,188.9c-5.884,22.67,22.726,16.528,22.726,16.528s32.772-73.764-35.448-210.313c-3.173-1.893-8.5,4.88-8.5,4.88" transform="translate(249.887 133.995)" fill="#ffb206"/>
        <path id="Path_399" data-name="Path 399" d="M322.678,158.892s-136.629-.179-162.72-.215S51.431,194.237,25.882,304.744c68.658.089,139.634.183,159.545.21s23.824,35.734,23.824,35.734c74.838.1,176.353.233,199.7.262S473.6,251.092,451.7,205.064c-9.675,48.047-30.993,72.737-55.032,79.57-18.486,5.256-72.7,4.781-96.754,4.28a15.494,15.494,0,0,1-14.794-12.122c-2.991-13.333-6.616-35.651-3.029-54.788,5.531-29.514,37.806-33.593,40.592-63.111" transform="translate(32.027 196.353)" fill="#ffb206"/>
        <path id="Path_400" data-name="Path 400" d="M24.344,290.947l194.646.257s28.4-60.726,5.788-95.257-115.828-23.84-155.524,11.125-44.91,83.875-44.91,83.875" transform="translate(30.124 216.325)" fill="#ffcf03"/>
        <path id="Path_401" data-name="Path 401" d="M185.289,285.816c5.641-13.619,22.057-58.921,3.808-86.569-20.544-31.13-101.88-23.589-142.686,5.609,43.192-20.8,108.149-23.3,126.2,4.048,15.089,22.862,6.475,57.786-.148,76.894Z" transform="translate(57.431 221.703)" fill="#ffe10b"/>
        <path id="Path_402" data-name="Path 402" d="M105.35,380.837l162.72.215c35.531.047,105.607-54.96,91.572-139.428s-35.609-124.661-35.609-124.661l24.726-7.52s47.252,92.064,57.516,119.542,25.614,101.3-30.067,152.209c-22.683,19.025-40.2,26.724-65.949,26.69l-197.736-.26Z" transform="translate(130.364 135.428)" fill="#ffcf03"/>
        <path id="Path_403" data-name="Path 403" d="M282.632,228.983c-10.263-27.478-57.516-119.542-57.516-119.542l-9.227,2.806c11.357,23.654,44.12,92.872,51.291,119.119,7.733,28.292,24.158,104.135-31.523,155.041-10.818,9.073-20.466,15.546-30.389,19.855,16.553-3.13,30.514-10.995,47.3-25.068,55.681-50.906,40.33-124.733,30.067-152.211" transform="translate(254.007 135.427)" fill="#ffe10b"/>
        <path id="Path_404" data-name="Path 404" d="M96.762,146.377S70.969,181.36,98,181.4l150.7.2c7.381.011,17.459-28.3,3.815-29.346s-55.876,4.048-87.793-3.2-58.171-13.98-67.969-2.665" transform="translate(105.997 173.653)" fill="#4c4c4c"/>
        <path id="Path_405" data-name="Path 405" d="M211.347,152.975s32.971-10.771,37.09-11.8,12.876-2.043,12.876-2.043-5.354-39.656.067-50.721c-11.572-11.087-27.8-7.5-44.807,8.437S193.631,115.618,194.913,120s16.434,32.978,16.434,32.978" transform="translate(240.985 101.472)" fill="#ffcf03"/>
        <path id="Path_406" data-name="Path 406" d="M204.025,132.236l-1.168-1.976,23.37-13.814a7.122,7.122,0,0,0,3.352-4.705L238.772,66.6l2.249.456L231.83,112.2a9.434,9.434,0,0,1-4.435,6.225Z" transform="translate(251.023 82.409)" fill="#a5a5a5"/>
        <path id="Path_407" data-name="Path 407" d="M223.9,107.6c-.011,7.856-6.012,14.217-13.407,14.208s-13.38-6.386-13.371-14.244,6.014-14.217,13.409-14.208,13.38,6.388,13.369,14.244" transform="translate(243.924 115.521)" fill="#efc100"/>
        <path id="Path_408" data-name="Path 408" d="M189.075,99.329s14.986-.5,20.428-5.468,11.427-4.819,16.908-.215,9.764,13.783,7.4,18.9-8.035,7.341-11.982,5.963c1.542,3.6-6.983,4.146-11.216,2.633s-14.185-4.041-18.134-3.188c-3.426-4.468-3.4-18.624-3.4-18.624" transform="translate(233.969 111.57)" fill="#243133"/>
        <path id="Path_409" data-name="Path 409" d="M199.665,119.783c3.072,5.931,5.594,10.69,5.594,10.69S238.23,119.7,242.351,118.68s12.874-2.043,12.874-2.043-.98-7.274-1.674-16.452c-13.04,13.756-33.678,18.405-53.887,19.6" transform="translate(247.073 123.973)" fill="#ffb206"/>
        <path id="Path_410" data-name="Path 410" d="M214.012,102.558a7.466,7.466,0,1,1-7.457-7.478,7.467,7.467,0,0,1,7.457,7.478" transform="translate(246.348 117.656)" fill="#353535"/>
        <path id="Path_411" data-name="Path 411" d="M230.692,77.133c-1.991,11.713-7.339,20.573-11.948,19.79S212.019,86.009,214.01,74.3s7.339-20.571,11.946-19.788,6.728,10.912,4.737,22.625" transform="translate(263.898 67.39)" fill="#ffcf03"/>
        <path id="Path_412" data-name="Path 412" d="M225.361,74.116c-1.586,9.33-5.245,16.49-8.173,15.993s-4.016-8.464-2.43-17.8,5.245-16.49,8.173-15.993,4.016,8.466,2.43,17.8" transform="translate(264.847 69.662)" fill="#efefef"/>
        <path id="Path_413" data-name="Path 413" d="M167.1,207.107l-8.265,19.557L156,232.325l21.1,7.513,9.813-23.694Z" transform="translate(193.039 256.282)" fill="#ffdaae"/>
        <path id="Path_414" data-name="Path 414" d="M180.644,125.427s122.189,23.556,140.7,41.431-70.661,163.868-70.661,163.868L224.73,318.943s22.645-93.145,50.989-111.512c4.822-10.979-57.406-11.236-109.59-8.558s-69.3-33.734-56.891-73.54c28.859-16.441,71.406.094,71.406.094" transform="translate(130.396 146.08)" fill="#35494e"/>
        <path id="Path_415" data-name="Path 415" d="M106.849,230.9S94.829,99.66,164.253,40.019c17.154,7.576,30.859,27.5,37.7,44.677s1.893,126.335-.177,134.571c-.541,2.148-5.8,4.665-13.763,7.014-22.574,6.659-60.879,12.769-81.168,4.623" transform="translate(131.235 49.521)" fill="#c9c9c9"/>
        <path id="Path_416" data-name="Path 416" d="M131.723,204.782S158.172,193.608,162.016,141s3.193-77.138,3.193-77.138,12.306,39.14,12.957,65.83-3.506,56.211-8.672,68.906-37.77,6.18-37.77,6.18" transform="translate(162.999 79.03)" fill="#243133"/>
        <path id="Path_417" data-name="Path 417" d="M134.859,84.254c3.828,23.108,16.617,78.953,27.015,89.717,17.188,17.792,99.913-5.614,99.913-5.614l-2.71-25.12c-25.746-.378-60.771-.459-66.262-2.868s-16.485-56.724-19.56-68.056S161.525,54.08,147.1,54.747s-13.6,21.33-12.245,29.507" transform="translate(166.025 67.691)" fill="#ccc"/>
        <path id="Path_418" data-name="Path 418" d="M113.725,223.145s-1.96-75.527,11.467-105.169C147.9,80.107,165.945,62.651,177.02,59.2s20.354,3.213,20.354,3.213-2.712-6.741-5.775-9.619-16.107-6.07-27.7,2.41-42.326,45.447-48.165,59.556c-8.2,19.8-9.453,39.117-9.827,106.055,1.77,3.6,7.822,2.329,7.822,2.329" transform="translate(131.049 61.545)" fill="#243133"/>
        <path id="Path_419" data-name="Path 419" d="M166.274,215.848s4.287,10.961,19.385,10.46c9.939,8.889,35.43,9.18,44.355,8.849s5.824,10.306-6.882,13.722-65.913.427-71.406.421,2.779-27.116,14.548-33.452" transform="translate(185.604 267.099)"/>
        <path id="Path_420" data-name="Path 420" d="M203.624,60.027c1.081-3.4-4.88-9.919.027-20.211s-8.471-19.193-8.471-19.193-.271.374-.725,1.016c-6.063-10-15.588-16.485-26.339-16.5-18.36-.022-33.271,18.748-33.3,41.925s14.848,41.247,33.21,41.27c.5,0,.973.676,1.472.649,7.272,4.757,17.269.472,18.517-2.842,1.551-4.119,2.519-6.562,5.036-6.56s1.864-3.215.007-4.822c1.358.456,4.11.192,3.663-.772s.454-3.025,1.143-8.287c6.6,2.857,7.69-3.866,5.761-5.672" transform="translate(166.824 6.358)" fill="#f7c58d"/>
        <path id="Path_421" data-name="Path 421" d="M133,32.9l.792,11.458s19.4,5.82,25.075-5.694S133,32.9,133,32.9" transform="translate(164.578 38.928)" fill="#353535"/>
        <path id="Path_422" data-name="Path 422" d="M158.865,22.851s8.672-2.734,11.673.016c.342.944-.658,2.143-2.282,1.8s-6.86-1.6-9.391-1.815" transform="translate(196.586 26.778)" fill="#353535"/>
        <path id="Path_423" data-name="Path 423" d="M188.181,29.52c-2.651-.143-18.586-.076-24.444-.047l.02-.065-10.429-3.361-.633,1.96,9.068,2.922c.425,6.433-4.963,13.948-7.5,17.1l-4.806-6.737-1.676,1.195,5.28,7.4c.447,1.723,3.164,10.077,14.816,15.342,14.252-5.092,24.408-27.469,20.3-35.714" transform="translate(182.874 32.232)" fill="#bbe0ff"/>
        <path id="Path_424" data-name="Path 424" d="M157.841,19.217c1.1.172,16.289,1.824,21.77,9.384,4.432-3.792-1.7-10.129-1.7-10.129Z" transform="translate(195.319 22.858)" fill="#353535"/>
        <path id="Path_425" data-name="Path 425" d="M186.7,41.923s28.872,3.58,37.62,6.938c4.92-21.878-10.245-40.216-34.181-46.939s-49.1,4.717-57.366,27.107-2.875,32.461,2.522,40.853c4.37,6.8,11.178,11.744,30.539,10.6,12.744-.754,12.809-19.063,14.581-25.856,1.81-6.949,2.412-13.633,6.285-12.7" transform="translate(159.027 0.007)" fill="#ffb206"/>
        <path id="Path_426" data-name="Path 426" d="M178.917,1.9a49.232,49.232,0,0,0-41.663,6.831,50.131,50.131,0,0,1,29.928-.83c20.676,5.779,34.81,20.229,35.139,38.153a75.141,75.141,0,0,1,10.84,2.741c4.891-21.884-10.3-40.2-34.244-46.895" transform="translate(169.844 0.001)" fill="#ffcf03"/>
        <path id="Path_427" data-name="Path 427" d="M179.268,17.414c-3.873-.933-4.475,5.75-6.285,12.7-1.772,6.793-1.837,25.1-14.581,25.856-14.12.839-21.551-1.575-26.241-5.576,4.461,5.761,11.7,9.684,29.154,8.65,12.747-.756,12.812-19.063,14.581-25.856,1.812-6.949,2.412-13.633,6.285-12.7,0,0,28.872,3.58,37.62,6.938a37.809,37.809,0,0,0,.682-4c-9.068-3.32-41.216-6.008-41.216-6.008" transform="translate(163.541 21.441)" fill="#353535"/>
        <g id="Group_1119" data-name="Group 1119" transform="translate(329.752 32.501)" opacity="0.49">
          <g id="Group_1118" data-name="Group 1118">
            <g id="Group_1117" data-name="Group 1117" clip-path="url(#clip-path-3)">
              <path id="Path_428" data-name="Path 428" d="M203.646,23.033s.9,33.814-25.185,60.764c-7.755,3.817-34.678-6.256-30.68-33.074,2.83-18.985-.072-32.812,5.77-35.723s32.928,8.525,50.094,8.032" transform="translate(-147.379 -14.526)" fill="#d2f0ff"/>
            </g>
          </g>
        </g>
        <path id="Path_429" data-name="Path 429" d="M244.419,185.031l-76.534-.1a15.666,15.666,0,0,1-13.358-7.587l-9.346-15.622a5.319,5.319,0,0,0-4.535-2.573l-126.941-.168a5.149,5.149,0,0,1,.013-10.3l126.943.168a15.667,15.667,0,0,1,13.358,7.585l9.344,15.622a5.322,5.322,0,0,0,4.535,2.575l76.534.1a5.149,5.149,0,1,1-.013,10.3" transform="translate(10.597 183.985)" fill="#4c4c4c"/>
        <path id="Path_430" data-name="Path 430" d="M161.114,238.011l-146.1-.192A13.729,13.729,0,0,1,1.3,224.069L1.475,90.355A13.734,13.734,0,0,1,15.226,76.642l146.1.192a13.733,13.733,0,0,1,13.713,13.751L174.863,224.3a13.732,13.732,0,0,1-13.749,13.713" transform="translate(1.609 94.84)" fill="#ffb206"/>
        <path id="Path_431" data-name="Path 431" d="M174.928,115.645l.034-25.059a13.734,13.734,0,0,0-13.713-13.751l-146.1-.192A13.734,13.734,0,0,0,1.4,90.355l-.034,25.062Z" transform="translate(1.687 94.84)" fill="#ea9c00"/>
        <path id="Path_432" data-name="Path 432" d="M179.684,109.306l.025-18.481a14.215,14.215,0,0,0-14.2-14.235l-151.253-.2A14.217,14.217,0,0,0,.025,90.588L0,109.069Z" transform="translate(0 94.529)" fill="#ffcf03"/>
        <path id="Path_433" data-name="Path 433" d="M67.55,141.714c.244-.2.559-.418.839-.678q5.749-5.326,11.487-10.659c.347-.324.682-.662,1.04-.973a1.141,1.141,0,0,0,.315-1.483,23.94,23.94,0,0,1-1.193-3.123,14.2,14.2,0,0,1,1.636-11.082,22.909,22.909,0,0,1,6.56-7.12,28.563,28.563,0,0,1,12-5.227,17.157,17.157,0,0,1,5.618-.121c5.77.877,8.932,4.67,9.373,10.574a21.493,21.493,0,0,1-.906,7.587,29.407,29.407,0,0,1-7.974,13.369,18.52,18.52,0,0,1-4.412,3.157,13.241,13.241,0,0,1-12.013.376c-1.783-.8-1.566-1.047-3.115.709-3.3,3.75-6.634,7.473-9.95,11.214-.356.4-.673.837-.971,1.21a3.975,3.975,0,0,0,1.3,1.519q8.87,8.243,17.756,16.47c.87.805,1.781,1.575,2.6,2.434a7.28,7.28,0,0,1,.087,10.167,7.515,7.515,0,0,1-5.26,2.819,6.7,6.7,0,0,1-5.513-2.179c-1.407-1.5-2.772-3.05-4.141-4.591q-7.182-8.1-14.358-16.2c-.257-.289-.553-.539-.864-.839a12.266,12.266,0,0,0-2.372,2.394q-8.068,9.065-16.107,18.152a14.586,14.586,0,0,1-1.472,1.548,6.754,6.754,0,0,1-7.265,1.2,8.191,8.191,0,0,1-5.019-7.7,6.76,6.76,0,0,1,2.018-4.717c1.058-1.069,2.175-2.079,3.28-3.1Q49,159,57.457,151.183c1.875-1.738,1.828-1.517.244-3.3q-4.742-5.336-9.48-10.673c-.369-.416-.741-.828-1.119-1.235-.351-.38-.718-.582-1.217-.215a9.153,9.153,0,0,1-1.206.745,13.119,13.119,0,0,1-13.46-.315,22.043,22.043,0,0,1-5.978-5.354,51.718,51.718,0,0,1-7-12.172,3.518,3.518,0,0,1-.293-.906,1.773,1.773,0,0,1,.888-1.817,1.47,1.47,0,0,1,1.763.009,13.934,13.934,0,0,1,1.434,1.233q5.215,5.028,10.415,10.071a11.791,11.791,0,0,0,1.421,1.251,1.848,1.848,0,0,0,2.378-.208,1.9,1.9,0,0,0,.541-2.184,8.3,8.3,0,0,0-.949-1.638q-5.078-7.36-10.174-14.711a18.964,18.964,0,0,1-1.155-1.8,1.381,1.381,0,0,1,.336-1.738,1.274,1.274,0,0,1,1.537-.089c.544.315,1.052.7,1.564,1.067q7.1,5.128,14.2,10.265a17.3,17.3,0,0,0,1.562,1.065,1.861,1.861,0,0,0,2.528-.452,2.117,2.117,0,0,0,0-2.651,15.783,15.783,0,0,0-1.105-1.244q-4.6-4.974-9.209-9.945c-.593-.64-1.186-1.284-1.714-1.976a1.7,1.7,0,0,1-.047-2.02,1.741,1.741,0,0,1,2.036-.767,5.207,5.207,0,0,1,.658.257A51.319,51.319,0,0,1,48.2,106.464a24.052,24.052,0,0,1,4.889,5.162c3.452,5.095,3.826,10.373.752,15.785-.727,1.282-.761,1.246.434,2.34,1.342,1.228,2.669,2.475,4.005,3.714q4.007,3.709,8.019,7.413a2.551,2.551,0,0,0,1.246.839" transform="translate(22.178 122.984)" fill="#fff"/>
      </g>
    </g>
  </g>
</svg>
