<svg id="Group_1019" data-name="Group 1019" xmlns="http://www.w3.org/2000/svg" width="286.098" height="288.891" viewBox="0 0 286.098 288.891">
  <rect id="Rectangle_459" data-name="Rectangle 459" width="286.098" height="288.891" fill="#fff"/>
  <rect id="Rectangle_460" data-name="Rectangle 460" width="10.013" height="10.111" transform="translate(17.881 18.056)"/>
  <rect id="Rectangle_461" data-name="Rectangle 461" width="10.014" height="10.111" transform="translate(27.895 18.056)"/>
  <rect id="Rectangle_462" data-name="Rectangle 462" width="10.013" height="10.111" transform="translate(37.908 18.056)"/>
  <rect id="Rectangle_463" data-name="Rectangle 463" width="10.013" height="10.111" transform="translate(47.921 18.056)"/>
  <rect id="Rectangle_464" data-name="Rectangle 464" width="10.013" height="10.111" transform="translate(57.935 18.056)"/>
  <rect id="Rectangle_465" data-name="Rectangle 465" width="10.013" height="10.111" transform="translate(67.948 18.056)"/>
  <rect id="Rectangle_466" data-name="Rectangle 466" width="10.013" height="10.111" transform="translate(77.962 18.056)"/>
  <rect id="Rectangle_467" data-name="Rectangle 467" width="10.014" height="10.111" transform="translate(97.989 18.056)"/>
  <rect id="Rectangle_468" data-name="Rectangle 468" width="10.013" height="10.111" transform="translate(108.002 18.056)"/>
  <rect id="Rectangle_469" data-name="Rectangle 469" width="10.013" height="10.111" transform="translate(118.015 18.056)"/>
  <rect id="Rectangle_470" data-name="Rectangle 470" width="10.013" height="10.111" transform="translate(128.029 18.056)"/>
  <rect id="Rectangle_471" data-name="Rectangle 471" width="10.013" height="10.111" transform="translate(198.123 18.056)"/>
  <rect id="Rectangle_472" data-name="Rectangle 472" width="10.013" height="10.111" transform="translate(208.136 18.056)"/>
  <rect id="Rectangle_473" data-name="Rectangle 473" width="10.014" height="10.111" transform="translate(218.15 18.056)"/>
  <rect id="Rectangle_474" data-name="Rectangle 474" width="10.013" height="10.111" transform="translate(228.163 18.056)"/>
  <rect id="Rectangle_475" data-name="Rectangle 475" width="10.013" height="10.111" transform="translate(238.176 18.056)"/>
  <rect id="Rectangle_476" data-name="Rectangle 476" width="10.014" height="10.111" transform="translate(248.19 18.056)"/>
  <rect id="Rectangle_477" data-name="Rectangle 477" width="10.013" height="10.111" transform="translate(258.203 18.056)"/>
  <rect id="Rectangle_478" data-name="Rectangle 478" width="10.013" height="10.111" transform="translate(17.881 28.167)"/>
  <rect id="Rectangle_479" data-name="Rectangle 479" width="10.013" height="10.111" transform="translate(77.962 28.167)"/>
  <rect id="Rectangle_480" data-name="Rectangle 480" width="10.013" height="10.111" transform="translate(128.029 28.167)"/>
  <rect id="Rectangle_481" data-name="Rectangle 481" width="10.013" height="10.111" transform="translate(138.042 28.167)"/>
  <rect id="Rectangle_482" data-name="Rectangle 482" width="10.013" height="10.111" transform="translate(148.056 28.167)"/>
  <rect id="Rectangle_483" data-name="Rectangle 483" width="10.013" height="10.111" transform="translate(158.069 28.167)"/>
  <rect id="Rectangle_484" data-name="Rectangle 484" width="10.014" height="10.111" transform="translate(178.096 28.167)"/>
  <rect id="Rectangle_485" data-name="Rectangle 485" width="10.013" height="10.111" transform="translate(198.123 28.167)"/>
  <rect id="Rectangle_486" data-name="Rectangle 486" width="10.013" height="10.111" transform="translate(258.203 28.167)"/>
  <rect id="Rectangle_487" data-name="Rectangle 487" width="10.013" height="10.111" transform="translate(17.881 38.278)"/>
  <rect id="Rectangle_488" data-name="Rectangle 488" width="10.013" height="10.111" transform="translate(37.908 38.278)"/>
  <rect id="Rectangle_489" data-name="Rectangle 489" width="10.013" height="10.111" transform="translate(47.921 38.278)"/>
  <rect id="Rectangle_490" data-name="Rectangle 490" width="10.013" height="10.111" transform="translate(57.935 38.278)"/>
  <rect id="Rectangle_491" data-name="Rectangle 491" width="10.013" height="10.111" transform="translate(77.962 38.278)"/>
  <rect id="Rectangle_492" data-name="Rectangle 492" width="10.013" height="10.111" transform="translate(108.002 38.278)"/>
  <rect id="Rectangle_493" data-name="Rectangle 493" width="10.013" height="10.111" transform="translate(128.029 38.278)"/>
  <rect id="Rectangle_494" data-name="Rectangle 494" width="10.013" height="10.111" transform="translate(148.056 38.278)"/>
  <rect id="Rectangle_495" data-name="Rectangle 495" width="10.013" height="10.111" transform="translate(168.083 38.278)"/>
  <rect id="Rectangle_496" data-name="Rectangle 496" width="10.014" height="10.111" transform="translate(178.096 38.278)"/>
  <rect id="Rectangle_497" data-name="Rectangle 497" width="10.013" height="10.111" transform="translate(198.123 38.278)"/>
  <rect id="Rectangle_498" data-name="Rectangle 498" width="10.014" height="10.111" transform="translate(218.15 38.278)"/>
  <rect id="Rectangle_499" data-name="Rectangle 499" width="10.013" height="10.111" transform="translate(228.163 38.278)"/>
  <rect id="Rectangle_500" data-name="Rectangle 500" width="10.013" height="10.111" transform="translate(238.176 38.278)"/>
  <rect id="Rectangle_501" data-name="Rectangle 501" width="10.013" height="10.111" transform="translate(258.203 38.278)"/>
  <rect id="Rectangle_502" data-name="Rectangle 502" width="10.013" height="10.111" transform="translate(17.881 48.39)"/>
  <rect id="Rectangle_503" data-name="Rectangle 503" width="10.013" height="10.111" transform="translate(37.908 48.39)"/>
  <rect id="Rectangle_504" data-name="Rectangle 504" width="10.013" height="10.111" transform="translate(47.921 48.39)"/>
  <rect id="Rectangle_505" data-name="Rectangle 505" width="10.013" height="10.111" transform="translate(57.935 48.39)"/>
  <rect id="Rectangle_506" data-name="Rectangle 506" width="10.013" height="10.111" transform="translate(77.962 48.39)"/>
  <rect id="Rectangle_507" data-name="Rectangle 507" width="10.013" height="10.111" transform="translate(118.015 48.39)"/>
  <rect id="Rectangle_508" data-name="Rectangle 508" width="10.013" height="10.111" transform="translate(128.029 48.39)"/>
  <rect id="Rectangle_509" data-name="Rectangle 509" width="10.013" height="10.111" transform="translate(148.056 48.39)"/>
  <rect id="Rectangle_510" data-name="Rectangle 510" width="10.013" height="10.111" transform="translate(168.083 48.39)"/>
  <rect id="Rectangle_511" data-name="Rectangle 511" width="10.014" height="10.111" transform="translate(178.096 48.39)"/>
  <rect id="Rectangle_512" data-name="Rectangle 512" width="10.013" height="10.111" transform="translate(198.123 48.39)"/>
  <rect id="Rectangle_513" data-name="Rectangle 513" width="10.014" height="10.111" transform="translate(218.15 48.39)"/>
  <rect id="Rectangle_514" data-name="Rectangle 514" width="10.013" height="10.111" transform="translate(228.163 48.39)"/>
  <rect id="Rectangle_515" data-name="Rectangle 515" width="10.013" height="10.111" transform="translate(238.176 48.39)"/>
  <rect id="Rectangle_516" data-name="Rectangle 516" width="10.013" height="10.111" transform="translate(258.203 48.39)"/>
  <rect id="Rectangle_517" data-name="Rectangle 517" width="10.013" height="10.111" transform="translate(17.881 58.501)"/>
  <rect id="Rectangle_518" data-name="Rectangle 518" width="10.013" height="10.111" transform="translate(37.908 58.501)"/>
  <rect id="Rectangle_519" data-name="Rectangle 519" width="10.013" height="10.111" transform="translate(47.921 58.501)"/>
  <rect id="Rectangle_520" data-name="Rectangle 520" width="10.013" height="10.111" transform="translate(57.935 58.501)"/>
  <rect id="Rectangle_521" data-name="Rectangle 521" width="10.013" height="10.111" transform="translate(77.962 58.501)"/>
  <rect id="Rectangle_522" data-name="Rectangle 522" width="10.013" height="10.111" transform="translate(118.015 58.501)"/>
  <rect id="Rectangle_523" data-name="Rectangle 523" width="10.013" height="10.111" transform="translate(128.029 58.501)"/>
  <rect id="Rectangle_524" data-name="Rectangle 524" width="10.013" height="10.111" transform="translate(138.042 58.501)"/>
  <rect id="Rectangle_525" data-name="Rectangle 525" width="10.013" height="10.111" transform="translate(158.069 58.501)"/>
  <rect id="Rectangle_526" data-name="Rectangle 526" width="10.014" height="10.111" transform="translate(178.096 58.501)"/>
  <rect id="Rectangle_527" data-name="Rectangle 527" width="10.013" height="10.111" transform="translate(198.123 58.501)"/>
  <rect id="Rectangle_528" data-name="Rectangle 528" width="10.014" height="10.111" transform="translate(218.15 58.501)"/>
  <rect id="Rectangle_529" data-name="Rectangle 529" width="10.013" height="10.111" transform="translate(228.163 58.501)"/>
  <rect id="Rectangle_530" data-name="Rectangle 530" width="10.013" height="10.111" transform="translate(238.176 58.501)"/>
  <rect id="Rectangle_531" data-name="Rectangle 531" width="10.013" height="10.111" transform="translate(258.203 58.501)"/>
  <rect id="Rectangle_532" data-name="Rectangle 532" width="10.013" height="10.111" transform="translate(17.881 68.612)"/>
  <rect id="Rectangle_533" data-name="Rectangle 533" width="10.013" height="10.111" transform="translate(77.962 68.612)"/>
  <rect id="Rectangle_534" data-name="Rectangle 534" width="10.013" height="10.111" transform="translate(108.002 68.612)"/>
  <rect id="Rectangle_535" data-name="Rectangle 535" width="10.013" height="10.111" transform="translate(128.029 68.612)"/>
  <rect id="Rectangle_536" data-name="Rectangle 536" width="10.013" height="10.111" transform="translate(158.069 68.612)"/>
  <rect id="Rectangle_537" data-name="Rectangle 537" width="10.014" height="10.111" transform="translate(178.096 68.612)"/>
  <rect id="Rectangle_538" data-name="Rectangle 538" width="10.013" height="10.111" transform="translate(198.123 68.612)"/>
  <rect id="Rectangle_539" data-name="Rectangle 539" width="10.013" height="10.111" transform="translate(258.203 68.612)"/>
  <rect id="Rectangle_540" data-name="Rectangle 540" width="10.013" height="10.111" transform="translate(17.881 78.723)"/>
  <rect id="Rectangle_541" data-name="Rectangle 541" width="10.014" height="10.111" transform="translate(27.895 78.723)"/>
  <rect id="Rectangle_542" data-name="Rectangle 542" width="10.013" height="10.111" transform="translate(37.908 78.723)"/>
  <rect id="Rectangle_543" data-name="Rectangle 543" width="10.013" height="10.111" transform="translate(47.921 78.723)"/>
  <rect id="Rectangle_544" data-name="Rectangle 544" width="10.013" height="10.111" transform="translate(57.935 78.723)"/>
  <rect id="Rectangle_545" data-name="Rectangle 545" width="10.013" height="10.111" transform="translate(67.948 78.723)"/>
  <rect id="Rectangle_546" data-name="Rectangle 546" width="10.013" height="10.111" transform="translate(77.962 78.723)"/>
  <rect id="Rectangle_547" data-name="Rectangle 547" width="10.014" height="10.111" transform="translate(97.989 78.723)"/>
  <rect id="Rectangle_548" data-name="Rectangle 548" width="10.013" height="10.111" transform="translate(118.015 78.723)"/>
  <rect id="Rectangle_549" data-name="Rectangle 549" width="10.013" height="10.111" transform="translate(138.042 78.723)"/>
  <rect id="Rectangle_550" data-name="Rectangle 550" width="10.013" height="10.111" transform="translate(158.069 78.723)"/>
  <rect id="Rectangle_551" data-name="Rectangle 551" width="10.014" height="10.111" transform="translate(178.096 78.723)"/>
  <rect id="Rectangle_552" data-name="Rectangle 552" width="10.013" height="10.111" transform="translate(198.123 78.723)"/>
  <rect id="Rectangle_553" data-name="Rectangle 553" width="10.013" height="10.111" transform="translate(208.136 78.723)"/>
  <rect id="Rectangle_554" data-name="Rectangle 554" width="10.014" height="10.111" transform="translate(218.15 78.723)"/>
  <rect id="Rectangle_555" data-name="Rectangle 555" width="10.013" height="10.111" transform="translate(228.163 78.723)"/>
  <rect id="Rectangle_556" data-name="Rectangle 556" width="10.013" height="10.111" transform="translate(238.176 78.723)"/>
  <rect id="Rectangle_557" data-name="Rectangle 557" width="10.014" height="10.111" transform="translate(248.19 78.723)"/>
  <rect id="Rectangle_558" data-name="Rectangle 558" width="10.013" height="10.111" transform="translate(258.203 78.723)"/>
  <rect id="Rectangle_559" data-name="Rectangle 559" width="10.014" height="10.111" transform="translate(97.989 88.834)"/>
  <rect id="Rectangle_560" data-name="Rectangle 560" width="10.013" height="10.111" transform="translate(108.002 88.834)"/>
  <rect id="Rectangle_561" data-name="Rectangle 561" width="10.013" height="10.111" transform="translate(138.042 88.834)"/>
  <rect id="Rectangle_562" data-name="Rectangle 562" width="10.013" height="10.111" transform="translate(148.056 88.834)"/>
  <rect id="Rectangle_563" data-name="Rectangle 563" width="10.013" height="10.111" transform="translate(17.881 98.945)"/>
  <rect id="Rectangle_564" data-name="Rectangle 564" width="10.014" height="10.111" transform="translate(27.895 98.945)"/>
  <rect id="Rectangle_565" data-name="Rectangle 565" width="10.013" height="10.111" transform="translate(47.921 98.945)"/>
  <rect id="Rectangle_566" data-name="Rectangle 566" width="10.013" height="10.111" transform="translate(57.935 98.945)"/>
  <rect id="Rectangle_567" data-name="Rectangle 567" width="10.013" height="10.111" transform="translate(77.962 98.945)"/>
  <rect id="Rectangle_568" data-name="Rectangle 568" width="10.013" height="10.111" transform="translate(108.002 98.945)"/>
  <rect id="Rectangle_569" data-name="Rectangle 569" width="10.013" height="10.111" transform="translate(138.042 98.945)"/>
  <rect id="Rectangle_570" data-name="Rectangle 570" width="10.013" height="10.111" transform="translate(158.069 98.945)"/>
  <rect id="Rectangle_571" data-name="Rectangle 571" width="10.013" height="10.111" transform="translate(168.083 98.945)"/>
  <rect id="Rectangle_572" data-name="Rectangle 572" width="10.013" height="10.111" transform="translate(198.123 98.945)"/>
  <rect id="Rectangle_573" data-name="Rectangle 573" width="10.013" height="10.111" transform="translate(258.203 98.945)"/>
  <rect id="Rectangle_574" data-name="Rectangle 574" width="10.013" height="10.111" transform="translate(17.881 109.057)"/>
  <rect id="Rectangle_575" data-name="Rectangle 575" width="10.014" height="10.111" transform="translate(27.895 109.057)"/>
  <rect id="Rectangle_576" data-name="Rectangle 576" width="10.013" height="10.111" transform="translate(37.908 109.057)"/>
  <rect id="Rectangle_577" data-name="Rectangle 577" width="10.013" height="10.111" transform="translate(57.935 109.057)"/>
  <rect id="Rectangle_578" data-name="Rectangle 578" width="10.013" height="10.111" transform="translate(67.948 109.057)"/>
  <rect id="Rectangle_579" data-name="Rectangle 579" width="10.013" height="10.111" transform="translate(87.975 109.057)"/>
  <rect id="Rectangle_580" data-name="Rectangle 580" width="10.013" height="10.111" transform="translate(118.015 109.057)"/>
  <rect id="Rectangle_581" data-name="Rectangle 581" width="10.013" height="10.111" transform="translate(148.056 109.057)"/>
  <rect id="Rectangle_582" data-name="Rectangle 582" width="10.013" height="10.111" transform="translate(158.069 109.057)"/>
  <rect id="Rectangle_583" data-name="Rectangle 583" width="10.013" height="10.111" transform="translate(168.083 109.057)"/>
  <rect id="Rectangle_584" data-name="Rectangle 584" width="10.013" height="10.111" transform="translate(188.109 109.057)"/>
  <rect id="Rectangle_585" data-name="Rectangle 585" width="10.013" height="10.111" transform="translate(208.136 109.057)"/>
  <rect id="Rectangle_586" data-name="Rectangle 586" width="10.014" height="10.111" transform="translate(218.15 109.057)"/>
  <rect id="Rectangle_587" data-name="Rectangle 587" width="10.013" height="10.111" transform="translate(228.163 109.057)"/>
  <rect id="Rectangle_588" data-name="Rectangle 588" width="10.013" height="10.111" transform="translate(238.176 109.057)"/>
  <rect id="Rectangle_589" data-name="Rectangle 589" width="10.014" height="10.111" transform="translate(248.19 109.057)"/>
  <rect id="Rectangle_590" data-name="Rectangle 590" width="10.013" height="10.111" transform="translate(17.881 119.168)"/>
  <rect id="Rectangle_591" data-name="Rectangle 591" width="10.013" height="10.111" transform="translate(37.908 119.168)"/>
  <rect id="Rectangle_592" data-name="Rectangle 592" width="10.013" height="10.111" transform="translate(57.935 119.168)"/>
  <rect id="Rectangle_593" data-name="Rectangle 593" width="10.013" height="10.111" transform="translate(77.962 119.168)"/>
  <rect id="Rectangle_594" data-name="Rectangle 594" width="10.013" height="10.111" transform="translate(87.975 119.168)"/>
  <rect id="Rectangle_595" data-name="Rectangle 595" width="10.014" height="10.111" transform="translate(97.989 119.168)"/>
  <rect id="Rectangle_596" data-name="Rectangle 596" width="10.013" height="10.111" transform="translate(108.002 119.168)"/>
  <rect id="Rectangle_597" data-name="Rectangle 597" width="10.013" height="10.111" transform="translate(138.042 119.168)"/>
  <rect id="Rectangle_598" data-name="Rectangle 598" width="10.013" height="10.111" transform="translate(168.083 119.168)"/>
  <rect id="Rectangle_599" data-name="Rectangle 599" width="10.014" height="10.111" transform="translate(178.096 119.168)"/>
  <rect id="Rectangle_600" data-name="Rectangle 600" width="10.013" height="10.111" transform="translate(198.123 119.168)"/>
  <rect id="Rectangle_601" data-name="Rectangle 601" width="10.013" height="10.111" transform="translate(208.136 119.168)"/>
  <rect id="Rectangle_602" data-name="Rectangle 602" width="10.013" height="10.111" transform="translate(228.163 119.168)"/>
  <rect id="Rectangle_603" data-name="Rectangle 603" width="10.013" height="10.111" transform="translate(258.203 119.168)"/>
  <rect id="Rectangle_604" data-name="Rectangle 604" width="10.013" height="10.111" transform="translate(17.881 129.279)"/>
  <rect id="Rectangle_605" data-name="Rectangle 605" width="10.014" height="10.111" transform="translate(27.895 129.279)"/>
  <rect id="Rectangle_606" data-name="Rectangle 606" width="10.013" height="10.111" transform="translate(87.975 129.279)"/>
  <rect id="Rectangle_607" data-name="Rectangle 607" width="10.014" height="10.111" transform="translate(97.989 129.279)"/>
  <rect id="Rectangle_608" data-name="Rectangle 608" width="10.013" height="10.111" transform="translate(168.083 129.279)"/>
  <rect id="Rectangle_609" data-name="Rectangle 609" width="10.013" height="10.111" transform="translate(208.136 129.279)"/>
  <rect id="Rectangle_610" data-name="Rectangle 610" width="10.013" height="10.111" transform="translate(228.163 129.279)"/>
  <rect id="Rectangle_611" data-name="Rectangle 611" width="10.013" height="10.111" transform="translate(238.176 129.279)"/>
  <rect id="Rectangle_612" data-name="Rectangle 612" width="10.014" height="10.111" transform="translate(248.19 129.279)"/>
  <rect id="Rectangle_613" data-name="Rectangle 613" width="10.013" height="10.111" transform="translate(258.203 129.279)"/>
  <rect id="Rectangle_614" data-name="Rectangle 614" width="10.013" height="10.111" transform="translate(37.908 139.39)"/>
  <rect id="Rectangle_615" data-name="Rectangle 615" width="10.013" height="10.111" transform="translate(47.921 139.39)"/>
  <rect id="Rectangle_616" data-name="Rectangle 616" width="10.013" height="10.111" transform="translate(77.962 139.39)"/>
  <rect id="Rectangle_617" data-name="Rectangle 617" width="10.014" height="10.111" transform="translate(97.989 139.39)"/>
  <rect id="Rectangle_618" data-name="Rectangle 618" width="10.013" height="10.111" transform="translate(108.002 139.39)"/>
  <rect id="Rectangle_619" data-name="Rectangle 619" width="10.013" height="10.111" transform="translate(118.015 139.39)"/>
  <rect id="Rectangle_620" data-name="Rectangle 620" width="10.013" height="10.111" transform="translate(158.069 139.39)"/>
  <rect id="Rectangle_621" data-name="Rectangle 621" width="10.013" height="10.111" transform="translate(168.083 139.39)"/>
  <rect id="Rectangle_622" data-name="Rectangle 622" width="10.013" height="10.111" transform="translate(198.123 139.39)"/>
  <rect id="Rectangle_623" data-name="Rectangle 623" width="10.013" height="10.111" transform="translate(258.203 139.39)"/>
  <rect id="Rectangle_624" data-name="Rectangle 624" width="10.013" height="10.111" transform="translate(17.881 149.501)"/>
  <rect id="Rectangle_625" data-name="Rectangle 625" width="10.013" height="10.111" transform="translate(37.908 149.501)"/>
  <rect id="Rectangle_626" data-name="Rectangle 626" width="10.013" height="10.111" transform="translate(47.921 149.501)"/>
  <rect id="Rectangle_627" data-name="Rectangle 627" width="10.013" height="10.111" transform="translate(67.948 149.501)"/>
  <rect id="Rectangle_628" data-name="Rectangle 628" width="10.013" height="10.111" transform="translate(87.975 149.501)"/>
  <rect id="Rectangle_629" data-name="Rectangle 629" width="10.013" height="10.111" transform="translate(118.015 149.501)"/>
  <rect id="Rectangle_630" data-name="Rectangle 630" width="10.013" height="10.111" transform="translate(138.042 149.501)"/>
  <rect id="Rectangle_631" data-name="Rectangle 631" width="10.013" height="10.111" transform="translate(158.069 149.501)"/>
  <rect id="Rectangle_632" data-name="Rectangle 632" width="10.013" height="10.111" transform="translate(168.083 149.501)"/>
  <rect id="Rectangle_633" data-name="Rectangle 633" width="10.014" height="10.111" transform="translate(178.096 149.501)"/>
  <rect id="Rectangle_634" data-name="Rectangle 634" width="10.013" height="10.111" transform="translate(188.109 149.501)"/>
  <rect id="Rectangle_635" data-name="Rectangle 635" width="10.014" height="10.111" transform="translate(218.15 149.501)"/>
  <rect id="Rectangle_636" data-name="Rectangle 636" width="10.014" height="10.111" transform="translate(248.19 149.501)"/>
  <rect id="Rectangle_637" data-name="Rectangle 637" width="10.013" height="10.111" transform="translate(17.881 159.612)"/>
  <rect id="Rectangle_638" data-name="Rectangle 638" width="10.014" height="10.111" transform="translate(27.895 159.612)"/>
  <rect id="Rectangle_639" data-name="Rectangle 639" width="10.013" height="10.111" transform="translate(47.921 159.612)"/>
  <rect id="Rectangle_640" data-name="Rectangle 640" width="10.013" height="10.111" transform="translate(57.935 159.612)"/>
  <rect id="Rectangle_641" data-name="Rectangle 641" width="10.013" height="10.111" transform="translate(67.948 159.612)"/>
  <rect id="Rectangle_642" data-name="Rectangle 642" width="10.013" height="10.111" transform="translate(77.962 159.612)"/>
  <rect id="Rectangle_643" data-name="Rectangle 643" width="10.013" height="10.111" transform="translate(87.975 159.612)"/>
  <rect id="Rectangle_644" data-name="Rectangle 644" width="10.013" height="10.111" transform="translate(108.002 159.612)"/>
  <rect id="Rectangle_645" data-name="Rectangle 645" width="10.013" height="10.111" transform="translate(158.069 159.612)"/>
  <rect id="Rectangle_646" data-name="Rectangle 646" width="10.013" height="10.111" transform="translate(168.083 159.612)"/>
  <rect id="Rectangle_647" data-name="Rectangle 647" width="10.013" height="10.111" transform="translate(188.109 159.612)"/>
  <rect id="Rectangle_648" data-name="Rectangle 648" width="10.013" height="10.111" transform="translate(198.123 159.612)"/>
  <rect id="Rectangle_649" data-name="Rectangle 649" width="10.014" height="10.111" transform="translate(218.15 159.612)"/>
  <rect id="Rectangle_650" data-name="Rectangle 650" width="10.013" height="10.111" transform="translate(228.163 159.612)"/>
  <rect id="Rectangle_651" data-name="Rectangle 651" width="10.013" height="10.111" transform="translate(238.176 159.612)"/>
  <rect id="Rectangle_652" data-name="Rectangle 652" width="10.014" height="10.111" transform="translate(248.19 159.612)"/>
  <rect id="Rectangle_653" data-name="Rectangle 653" width="10.013" height="10.111" transform="translate(258.203 159.612)"/>
  <rect id="Rectangle_654" data-name="Rectangle 654" width="10.013" height="10.111" transform="translate(17.881 169.724)"/>
  <rect id="Rectangle_655" data-name="Rectangle 655" width="10.013" height="10.111" transform="translate(67.948 169.724)"/>
  <rect id="Rectangle_656" data-name="Rectangle 656" width="10.013" height="10.111" transform="translate(87.975 169.724)"/>
  <rect id="Rectangle_657" data-name="Rectangle 657" width="10.013" height="10.111" transform="translate(108.002 169.724)"/>
  <rect id="Rectangle_658" data-name="Rectangle 658" width="10.013" height="10.111" transform="translate(138.042 169.724)"/>
  <rect id="Rectangle_659" data-name="Rectangle 659" width="10.013" height="10.111" transform="translate(158.069 169.724)"/>
  <rect id="Rectangle_660" data-name="Rectangle 660" width="10.014" height="10.111" transform="translate(178.096 169.724)"/>
  <rect id="Rectangle_661" data-name="Rectangle 661" width="10.013" height="10.111" transform="translate(188.109 169.724)"/>
  <rect id="Rectangle_662" data-name="Rectangle 662" width="10.013" height="10.111" transform="translate(208.136 169.724)"/>
  <rect id="Rectangle_663" data-name="Rectangle 663" width="10.013" height="10.111" transform="translate(228.163 169.724)"/>
  <rect id="Rectangle_664" data-name="Rectangle 664" width="10.013" height="10.111" transform="translate(238.176 169.724)"/>
  <rect id="Rectangle_665" data-name="Rectangle 665" width="10.013" height="10.111" transform="translate(258.203 169.724)"/>
  <rect id="Rectangle_666" data-name="Rectangle 666" width="10.013" height="10.111" transform="translate(17.881 179.835)"/>
  <rect id="Rectangle_667" data-name="Rectangle 667" width="10.013" height="10.111" transform="translate(37.908 179.835)"/>
  <rect id="Rectangle_668" data-name="Rectangle 668" width="10.013" height="10.111" transform="translate(47.921 179.835)"/>
  <rect id="Rectangle_669" data-name="Rectangle 669" width="10.013" height="10.111" transform="translate(57.935 179.835)"/>
  <rect id="Rectangle_670" data-name="Rectangle 670" width="10.013" height="10.111" transform="translate(77.962 179.835)"/>
  <rect id="Rectangle_671" data-name="Rectangle 671" width="10.013" height="10.111" transform="translate(87.975 179.835)"/>
  <rect id="Rectangle_672" data-name="Rectangle 672" width="10.013" height="10.111" transform="translate(118.015 179.835)"/>
  <rect id="Rectangle_673" data-name="Rectangle 673" width="10.013" height="10.111" transform="translate(128.029 179.835)"/>
  <rect id="Rectangle_674" data-name="Rectangle 674" width="10.013" height="10.111" transform="translate(138.042 179.835)"/>
  <rect id="Rectangle_675" data-name="Rectangle 675" width="10.013" height="10.111" transform="translate(148.056 179.835)"/>
  <rect id="Rectangle_676" data-name="Rectangle 676" width="10.013" height="10.111" transform="translate(168.083 179.835)"/>
  <rect id="Rectangle_677" data-name="Rectangle 677" width="10.014" height="10.111" transform="translate(178.096 179.835)"/>
  <rect id="Rectangle_678" data-name="Rectangle 678" width="10.013" height="10.111" transform="translate(188.109 179.835)"/>
  <rect id="Rectangle_679" data-name="Rectangle 679" width="10.013" height="10.111" transform="translate(198.123 179.835)"/>
  <rect id="Rectangle_680" data-name="Rectangle 680" width="10.013" height="10.111" transform="translate(208.136 179.835)"/>
  <rect id="Rectangle_681" data-name="Rectangle 681" width="10.014" height="10.111" transform="translate(218.15 179.835)"/>
  <rect id="Rectangle_682" data-name="Rectangle 682" width="10.013" height="10.111" transform="translate(238.176 179.835)"/>
  <rect id="Rectangle_683" data-name="Rectangle 683" width="10.014" height="10.111" transform="translate(248.19 179.835)"/>
  <rect id="Rectangle_684" data-name="Rectangle 684" width="10.014" height="10.111" transform="translate(97.989 189.946)"/>
  <rect id="Rectangle_685" data-name="Rectangle 685" width="10.013" height="10.111" transform="translate(108.002 189.946)"/>
  <rect id="Rectangle_686" data-name="Rectangle 686" width="10.013" height="10.111" transform="translate(128.029 189.946)"/>
  <rect id="Rectangle_687" data-name="Rectangle 687" width="10.014" height="10.111" transform="translate(178.096 189.946)"/>
  <rect id="Rectangle_688" data-name="Rectangle 688" width="10.014" height="10.111" transform="translate(218.15 189.946)"/>
  <rect id="Rectangle_689" data-name="Rectangle 689" width="10.013" height="10.111" transform="translate(238.176 189.946)"/>
  <rect id="Rectangle_690" data-name="Rectangle 690" width="10.014" height="10.111" transform="translate(248.19 189.946)"/>
  <rect id="Rectangle_691" data-name="Rectangle 691" width="10.013" height="10.111" transform="translate(17.881 200.057)"/>
  <rect id="Rectangle_692" data-name="Rectangle 692" width="10.014" height="10.111" transform="translate(27.895 200.057)"/>
  <rect id="Rectangle_693" data-name="Rectangle 693" width="10.013" height="10.111" transform="translate(37.908 200.057)"/>
  <rect id="Rectangle_694" data-name="Rectangle 694" width="10.013" height="10.111" transform="translate(47.921 200.057)"/>
  <rect id="Rectangle_695" data-name="Rectangle 695" width="10.013" height="10.111" transform="translate(57.935 200.057)"/>
  <rect id="Rectangle_696" data-name="Rectangle 696" width="10.013" height="10.111" transform="translate(67.948 200.057)"/>
  <rect id="Rectangle_697" data-name="Rectangle 697" width="10.013" height="10.111" transform="translate(77.962 200.057)"/>
  <rect id="Rectangle_698" data-name="Rectangle 698" width="10.013" height="10.111" transform="translate(118.015 200.057)"/>
  <rect id="Rectangle_699" data-name="Rectangle 699" width="10.013" height="10.111" transform="translate(138.042 200.057)"/>
  <rect id="Rectangle_700" data-name="Rectangle 700" width="10.013" height="10.111" transform="translate(158.069 200.057)"/>
  <rect id="Rectangle_701" data-name="Rectangle 701" width="10.014" height="10.111" transform="translate(178.096 200.057)"/>
  <rect id="Rectangle_702" data-name="Rectangle 702" width="10.013" height="10.111" transform="translate(198.123 200.057)"/>
  <rect id="Rectangle_703" data-name="Rectangle 703" width="10.014" height="10.111" transform="translate(218.15 200.057)"/>
  <rect id="Rectangle_704" data-name="Rectangle 704" width="10.013" height="10.111" transform="translate(258.203 200.057)"/>
  <rect id="Rectangle_705" data-name="Rectangle 705" width="10.013" height="10.111" transform="translate(17.881 210.168)"/>
  <rect id="Rectangle_706" data-name="Rectangle 706" width="10.013" height="10.111" transform="translate(77.962 210.168)"/>
  <rect id="Rectangle_707" data-name="Rectangle 707" width="10.013" height="10.111" transform="translate(128.029 210.168)"/>
  <rect id="Rectangle_708" data-name="Rectangle 708" width="10.013" height="10.111" transform="translate(148.056 210.168)"/>
  <rect id="Rectangle_709" data-name="Rectangle 709" width="10.013" height="10.111" transform="translate(168.083 210.168)"/>
  <rect id="Rectangle_710" data-name="Rectangle 710" width="10.014" height="10.111" transform="translate(178.096 210.168)"/>
  <rect id="Rectangle_711" data-name="Rectangle 711" width="10.014" height="10.111" transform="translate(218.15 210.168)"/>
  <rect id="Rectangle_712" data-name="Rectangle 712" width="10.013" height="10.111" transform="translate(258.203 210.168)"/>
  <rect id="Rectangle_713" data-name="Rectangle 713" width="10.013" height="10.111" transform="translate(17.881 220.28)"/>
  <rect id="Rectangle_714" data-name="Rectangle 714" width="10.013" height="10.111" transform="translate(37.908 220.28)"/>
  <rect id="Rectangle_715" data-name="Rectangle 715" width="10.013" height="10.111" transform="translate(47.921 220.28)"/>
  <rect id="Rectangle_716" data-name="Rectangle 716" width="10.013" height="10.111" transform="translate(57.935 220.28)"/>
  <rect id="Rectangle_717" data-name="Rectangle 717" width="10.013" height="10.111" transform="translate(77.962 220.28)"/>
  <rect id="Rectangle_718" data-name="Rectangle 718" width="10.014" height="10.111" transform="translate(97.989 220.28)"/>
  <rect id="Rectangle_719" data-name="Rectangle 719" width="10.013" height="10.111" transform="translate(118.015 220.28)"/>
  <rect id="Rectangle_720" data-name="Rectangle 720" width="10.013" height="10.111" transform="translate(128.029 220.28)"/>
  <rect id="Rectangle_721" data-name="Rectangle 721" width="10.013" height="10.111" transform="translate(138.042 220.28)"/>
  <rect id="Rectangle_722" data-name="Rectangle 722" width="10.013" height="10.111" transform="translate(158.069 220.28)"/>
  <rect id="Rectangle_723" data-name="Rectangle 723" width="10.013" height="10.111" transform="translate(168.083 220.28)"/>
  <rect id="Rectangle_724" data-name="Rectangle 724" width="10.014" height="10.111" transform="translate(178.096 220.28)"/>
  <rect id="Rectangle_725" data-name="Rectangle 725" width="10.013" height="10.111" transform="translate(188.109 220.28)"/>
  <rect id="Rectangle_726" data-name="Rectangle 726" width="10.013" height="10.111" transform="translate(198.123 220.28)"/>
  <rect id="Rectangle_727" data-name="Rectangle 727" width="10.013" height="10.111" transform="translate(208.136 220.28)"/>
  <rect id="Rectangle_728" data-name="Rectangle 728" width="10.014" height="10.111" transform="translate(218.15 220.28)"/>
  <rect id="Rectangle_729" data-name="Rectangle 729" width="10.013" height="10.111" transform="translate(17.881 230.391)"/>
  <rect id="Rectangle_730" data-name="Rectangle 730" width="10.013" height="10.111" transform="translate(37.908 230.391)"/>
  <rect id="Rectangle_731" data-name="Rectangle 731" width="10.013" height="10.111" transform="translate(47.921 230.391)"/>
  <rect id="Rectangle_732" data-name="Rectangle 732" width="10.013" height="10.111" transform="translate(57.935 230.391)"/>
  <rect id="Rectangle_733" data-name="Rectangle 733" width="10.013" height="10.111" transform="translate(77.962 230.391)"/>
  <rect id="Rectangle_734" data-name="Rectangle 734" width="10.014" height="10.111" transform="translate(97.989 230.391)"/>
  <rect id="Rectangle_735" data-name="Rectangle 735" width="10.013" height="10.111" transform="translate(108.002 230.391)"/>
  <rect id="Rectangle_736" data-name="Rectangle 736" width="10.013" height="10.111" transform="translate(138.042 230.391)"/>
  <rect id="Rectangle_737" data-name="Rectangle 737" width="10.013" height="10.111" transform="translate(148.056 230.391)"/>
  <rect id="Rectangle_738" data-name="Rectangle 738" width="10.013" height="10.111" transform="translate(158.069 230.391)"/>
  <rect id="Rectangle_739" data-name="Rectangle 739" width="10.013" height="10.111" transform="translate(198.123 230.391)"/>
  <rect id="Rectangle_740" data-name="Rectangle 740" width="10.014" height="10.111" transform="translate(248.19 230.391)"/>
  <rect id="Rectangle_741" data-name="Rectangle 741" width="10.013" height="10.111" transform="translate(258.203 230.391)"/>
  <rect id="Rectangle_742" data-name="Rectangle 742" width="10.013" height="10.111" transform="translate(17.881 240.502)"/>
  <rect id="Rectangle_743" data-name="Rectangle 743" width="10.013" height="10.111" transform="translate(37.908 240.502)"/>
  <rect id="Rectangle_744" data-name="Rectangle 744" width="10.013" height="10.111" transform="translate(47.921 240.502)"/>
  <rect id="Rectangle_745" data-name="Rectangle 745" width="10.013" height="10.111" transform="translate(57.935 240.502)"/>
  <rect id="Rectangle_746" data-name="Rectangle 746" width="10.013" height="10.111" transform="translate(77.962 240.502)"/>
  <rect id="Rectangle_747" data-name="Rectangle 747" width="10.013" height="10.111" transform="translate(108.002 240.502)"/>
  <rect id="Rectangle_748" data-name="Rectangle 748" width="10.013" height="10.111" transform="translate(128.029 240.502)"/>
  <rect id="Rectangle_749" data-name="Rectangle 749" width="10.013" height="10.111" transform="translate(148.056 240.502)"/>
  <rect id="Rectangle_750" data-name="Rectangle 750" width="10.013" height="10.111" transform="translate(168.083 240.502)"/>
  <rect id="Rectangle_751" data-name="Rectangle 751" width="10.013" height="10.111" transform="translate(188.109 240.502)"/>
  <rect id="Rectangle_752" data-name="Rectangle 752" width="10.014" height="10.111" transform="translate(218.15 240.502)"/>
  <rect id="Rectangle_753" data-name="Rectangle 753" width="10.013" height="10.111" transform="translate(228.163 240.502)"/>
  <rect id="Rectangle_754" data-name="Rectangle 754" width="10.013" height="10.111" transform="translate(238.176 240.502)"/>
  <rect id="Rectangle_755" data-name="Rectangle 755" width="10.014" height="10.111" transform="translate(248.19 240.502)"/>
  <rect id="Rectangle_756" data-name="Rectangle 756" width="10.013" height="10.111" transform="translate(258.203 240.502)"/>
  <rect id="Rectangle_757" data-name="Rectangle 757" width="10.013" height="10.111" transform="translate(17.881 250.613)"/>
  <rect id="Rectangle_758" data-name="Rectangle 758" width="10.013" height="10.111" transform="translate(77.962 250.613)"/>
  <rect id="Rectangle_759" data-name="Rectangle 759" width="10.014" height="10.111" transform="translate(97.989 250.613)"/>
  <rect id="Rectangle_760" data-name="Rectangle 760" width="10.013" height="10.111" transform="translate(118.015 250.613)"/>
  <rect id="Rectangle_761" data-name="Rectangle 761" width="10.013" height="10.111" transform="translate(128.029 250.613)"/>
  <rect id="Rectangle_762" data-name="Rectangle 762" width="10.013" height="10.111" transform="translate(158.069 250.613)"/>
  <rect id="Rectangle_763" data-name="Rectangle 763" width="10.013" height="10.111" transform="translate(168.083 250.613)"/>
  <rect id="Rectangle_764" data-name="Rectangle 764" width="10.013" height="10.111" transform="translate(208.136 250.613)"/>
  <rect id="Rectangle_765" data-name="Rectangle 765" width="10.014" height="10.111" transform="translate(218.15 250.613)"/>
  <rect id="Rectangle_766" data-name="Rectangle 766" width="10.013" height="10.111" transform="translate(238.176 250.613)"/>
  <rect id="Rectangle_767" data-name="Rectangle 767" width="10.014" height="10.111" transform="translate(248.19 250.613)"/>
  <rect id="Rectangle_768" data-name="Rectangle 768" width="10.013" height="10.111" transform="translate(258.203 250.613)"/>
  <rect id="Rectangle_769" data-name="Rectangle 769" width="10.013" height="10.111" transform="translate(17.881 260.724)"/>
  <rect id="Rectangle_770" data-name="Rectangle 770" width="10.014" height="10.111" transform="translate(27.895 260.724)"/>
  <rect id="Rectangle_771" data-name="Rectangle 771" width="10.013" height="10.111" transform="translate(37.908 260.724)"/>
  <rect id="Rectangle_772" data-name="Rectangle 772" width="10.013" height="10.111" transform="translate(47.921 260.724)"/>
  <rect id="Rectangle_773" data-name="Rectangle 773" width="10.013" height="10.111" transform="translate(57.935 260.724)"/>
  <rect id="Rectangle_774" data-name="Rectangle 774" width="10.013" height="10.111" transform="translate(67.948 260.724)"/>
  <rect id="Rectangle_775" data-name="Rectangle 775" width="10.013" height="10.111" transform="translate(77.962 260.724)"/>
  <rect id="Rectangle_776" data-name="Rectangle 776" width="10.014" height="10.111" transform="translate(97.989 260.724)"/>
  <rect id="Rectangle_777" data-name="Rectangle 777" width="10.013" height="10.111" transform="translate(108.002 260.724)"/>
  <rect id="Rectangle_778" data-name="Rectangle 778" width="10.013" height="10.111" transform="translate(118.015 260.724)"/>
  <rect id="Rectangle_779" data-name="Rectangle 779" width="10.013" height="10.111" transform="translate(138.042 260.724)"/>
  <rect id="Rectangle_780" data-name="Rectangle 780" width="10.014" height="10.111" transform="translate(178.096 260.724)"/>
  <rect id="Rectangle_781" data-name="Rectangle 781" width="10.013" height="10.111" transform="translate(188.109 260.724)"/>
  <rect id="Rectangle_782" data-name="Rectangle 782" width="10.013" height="10.111" transform="translate(228.163 260.724)"/>
  <rect id="Rectangle_783" data-name="Rectangle 783" width="10.013" height="10.111" transform="translate(258.203 260.724)"/>
</svg>
