<svg xmlns="http://www.w3.org/2000/svg" xmlns:xlink="http://www.w3.org/1999/xlink" width="153" height="250" viewBox="0 0 153 250">
  <defs>
    <clipPath id="clip-path">
      <rect id="Rectangle_454" data-name="Rectangle 454" width="153" height="250" transform="translate(228 2299)" fill="#fff"/>
    </clipPath>
    <clipPath id="clip-path-2">
      <rect id="Rectangle_257" data-name="Rectangle 257" width="152.897" height="250" fill="none"/>
    </clipPath>
  </defs>
  <g id="Mask_Group_8" data-name="Mask Group 8" transform="translate(-228 -2299)" clip-path="url(#clip-path)">
    <g id="Group_537" data-name="Group 537" transform="translate(228 2299)">
      <g id="Group_536" data-name="Group 536" clip-path="url(#clip-path-2)">
        <path id="Subtraction_2" data-name="Subtraction 2" d="M142.808,246.351H6.441A6.448,6.448,0,0,1,0,239.911V6.445A6.45,6.45,0,0,1,6.441,0H142.808a6.45,6.45,0,0,1,6.441,6.445V239.911A6.448,6.448,0,0,1,142.808,246.351Zm-68.19-20.889a6.795,6.795,0,1,0,6.795,6.795A6.8,6.8,0,0,0,74.618,225.462ZM20.432,13.087a6.45,6.45,0,0,0-6.445,6.441V213.14a6.45,6.45,0,0,0,6.445,6.441H128.817a6.448,6.448,0,0,0,6.441-6.441V19.528a6.448,6.448,0,0,0-6.441-6.441Z" transform="translate(1.827 1.823)" fill="#011a2c" stroke="rgba(0,0,0,0)" stroke-miterlimit="10" stroke-width="1"/>
        <path id="Path_126" data-name="Path 126" d="M45.693,12.027C43.358,5.081,34.113-.069,23.069,0,10.291.081-.038,7.111,0,15.7S10.428,31.2,23.208,31.116c11.044-.069,20.241-5.334,22.514-12.306,0,0,71.5,5.529,74.434,5.509,5.742-.035,10.377-4.256,10.355-9.43s-4.7-9.339-10.438-9.3c-2.939.017-74.381,6.439-74.381,6.439" transform="translate(114.358 60.096) rotate(90)" fill="#011a2c"/>
        <path id="Path_127" data-name="Path 127" d="M90.655.422a1.224,1.224,0,0,0,.2.028l39.035,2.382a1.169,1.169,0,0,1,.987,1.234V4.2l.005,1.136A1.8,1.8,0,0,1,129.3,7.271l-34.488.555a1.461,1.461,0,0,0-1.6,1.551c.006,1.062.727,1.307,1.615,1.3l34.5.312a1.79,1.79,0,0,1,1.589,1.912,1.8,1.8,0,0,1-1.584,1.934l-34.488.553a1.46,1.46,0,0,0-1.6,1.551c0,1.062.725,1.307,1.615,1.3l34.5.312a1.788,1.788,0,0,1,1.589,1.912l.007,1.359s-.428,1.3-.981,1.335L91.2,25.784c-11.276,1.147-15.874-4.138-17.747-8.445a1.556,1.556,0,0,0-1.533-1.027c-10.644.966-58.805,6.266-61.481,6.284C4.7,22.633.024,18.436,0,13.221S4.611,3.747,10.353,3.71c2.668-.015,50.6,4.643,61.455,5.484A1.63,1.63,0,0,0,73.37,8.067C77.73-2.233,89.523.164,90.655.422" transform="translate(41.723 190.83) rotate(-90)" fill="#011a2c"/>
      </g>
    </g>
  </g>
</svg>
