<svg xmlns="http://www.w3.org/2000/svg" width="512" height="362" viewBox="0 0 512 362">
  <g id="Group_1050" data-name="Group 1050" transform="translate(14047 -8885)">
    <rect id="Rectangle_800" data-name="Rectangle 800" width="512" height="362" transform="translate(-14047 8885)" fill="#e4e4e4"/>
    <text id="無參考圖片" transform="translate(-13924 9157.99)" fill="#ed7550" font-size="53" font-family="PingFangTC-Regular, PingFang TC" letter-spacing="0.004em"><tspan x="0" y="0">無參考圖片</tspan></text>
    <text id="No_reference" data-name="No reference" transform="translate(-13871 9196.99)" fill="#ed7550" font-size="22" font-family="Montserrat-Bold, Montserrat" font-weight="700" letter-spacing="0.05em"><tspan x="0" y="0">No reference</tspan></text>
    <g id="Group_1049" data-name="Group 1049" transform="translate(66.878 -17.871)">
      <path id="Path_53" data-name="Path 53" d="M27.278,12.426A45.711,45.711,0,0,1,36.3,10.5a76.242,76.242,0,0,1,9.021-.531,74.6,74.6,0,0,1,9.02.525,45.046,45.046,0,0,1,9.02,1.934,44.937,44.937,0,0,1-9.02,1.934,74.6,74.6,0,0,1-9.02.525,75.91,75.91,0,0,1-9.021-.531,45.711,45.711,0,0,1-9.02-1.927" transform="translate(-13955.997 8931.613)" fill="#ed7550"/>
      <path id="Path_54" data-name="Path 54" d="M39.7,36.08a45.575,45.575,0,0,1-1.927-9.02,75.913,75.913,0,0,1-.531-9.021,74.919,74.919,0,0,1,.524-9.02A45.05,45.05,0,0,1,39.7,0a45.155,45.155,0,0,1,1.934,9.02,74.6,74.6,0,0,1,.525,9.02,76.238,76.238,0,0,1-.531,9.021A45.687,45.687,0,0,1,39.7,36.08" transform="translate(-13950.383 8926)" fill="#ed7550"/>
      <path id="Path_55" data-name="Path 55" d="M46.688,23.967a31.117,31.117,0,0,1,6.353-1.347,50.469,50.469,0,0,1,6.357-.385,49.491,49.491,0,0,1,6.353.38,30.8,30.8,0,0,1,6.357,1.352,30.8,30.8,0,0,1-6.357,1.352,49.491,49.491,0,0,1-6.353.38,50.468,50.468,0,0,1-6.357-.385,31.117,31.117,0,0,1-6.353-1.347" transform="translate(-13945.065 8938.522)" fill="#ed7550"/>
      <path id="Path_56" data-name="Path 56" d="M55.442,40.632a31.153,31.153,0,0,1-1.347-6.354,50.425,50.425,0,0,1-.385-6.356,49.514,49.514,0,0,1,.38-6.354,30.768,30.768,0,0,1,1.352-6.356,30.768,30.768,0,0,1,1.352,6.356,49.516,49.516,0,0,1,.38,6.354,50.426,50.426,0,0,1-.385,6.356,31.154,31.154,0,0,1-1.347,6.354" transform="translate(-13941.111 8934.567)" fill="#ed7550"/>
      <g id="Group_1048" data-name="Group 1048">
        <path id="Path_48" data-name="Path 48" d="M203.422,138.955a95.94,95.94,0,0,0-191.881,0Z" transform="translate(-13964.859 8950.226)" fill="#ed7550"/>
        <path id="Path_49" data-name="Path 49" d="M91.878,40.168a13.94,13.94,0,1,1-13.94-13.94,13.941,13.941,0,0,1,13.94,13.94" transform="translate(-13935.316 8940.771)" fill="#ed7550"/>
        <path id="Path_50" data-name="Path 50" d="M22.033,115.96c.5-8.393,3.165-16.587,6.864-24.212A76.281,76.281,0,0,1,43.843,71.068,74.088,74.088,0,0,1,64.874,56.576a70.959,70.959,0,0,1,24.4-6.217,161.184,161.184,0,0,0-21.994,10.78A104.371,104.371,0,0,0,48.437,75.748,108.373,108.373,0,0,0,33.369,94.281a118.157,118.157,0,0,0-6.125,10.478,120.29,120.29,0,0,0-5.212,11.2" transform="translate(-13958.951 8954.361)" fill="#fff"/>
        <path id="Path_51" data-name="Path 51" d="M7.345,104.419a77.281,77.281,0,0,1,9.331-24.528,88.124,88.124,0,0,1,7.477-10.969,96.093,96.093,0,0,1,9.087-9.745A92.714,92.714,0,0,1,43.806,51.03a83.688,83.688,0,0,1,11.757-6.25,76.045,76.045,0,0,1,25.583-5.962,132.024,132.024,0,0,0-23.932,9.429A101.361,101.361,0,0,0,36.551,62.81a102.58,102.58,0,0,0-8.826,9.081,116.684,116.684,0,0,0-7.817,10.047A134.833,134.833,0,0,0,7.345,104.419" transform="translate(-13967.223 8947.861)" fill="#ed7550"/>
        <path id="Path_52" data-name="Path 52" d="M165.076,103.37a134.836,134.836,0,0,0-12.563-22.482A117.309,117.309,0,0,0,144.7,70.841a102.6,102.6,0,0,0-8.827-9.081A101.394,101.394,0,0,0,115.208,47.2a132.053,132.053,0,0,0-23.931-9.429,76.045,76.045,0,0,1,25.581,5.962,83.88,83.88,0,0,1,11.758,6.25,92.975,92.975,0,0,1,10.566,8.147,96.094,96.094,0,0,1,9.087,9.745,87.947,87.947,0,0,1,7.475,10.969,77.285,77.285,0,0,1,9.332,24.528" transform="translate(-13919.954 8947.271)" fill="#ed7550"/>
        <path id="Path_57" data-name="Path 57" d="M69.059,43.477a8.345,8.345,0,0,1-2.213-4.361,9.581,9.581,0,0,1,.319-4.957,7.977,7.977,0,0,1,3.314-4.247,5.678,5.678,0,0,1,5.141-.375A17.393,17.393,0,0,0,73.058,32.8a22.314,22.314,0,0,0-1.238,2.951c-.378,1.046-.711,2.231-1.121,3.508a33,33,0,0,1-1.64,4.222" transform="translate(-13933.817 8942.384)" fill="#fff"/>
        <path id="Path_58" data-name="Path 58" d="M204.253,119.313h-190a5.862,5.862,0,0,1-5.862-5.862v-.577a5.862,5.862,0,0,1,5.862-5.862h190a5.862,5.862,0,0,1,5.862,5.862v.577a5.862,5.862,0,0,1-5.862,5.862" transform="translate(-13966.632 8986.268)" fill="#ed7550"/>
      </g>
    </g>
  </g>
</svg>
