<svg xmlns="http://www.w3.org/2000/svg" width="83.909" height="74.586" viewBox="0 0 83.909 74.586">
  <path id="Icon_awesome-shopping-cart" data-name="Icon awesome-shopping-cart" d="M76.934,43.895l6.886-30.3a3.5,3.5,0,0,0-3.409-4.271H23.193L21.857,2.8A3.5,3.5,0,0,0,18.432,0H3.5A3.5,3.5,0,0,0,0,3.5V5.827a3.5,3.5,0,0,0,3.5,3.5h10.18L23.91,59.353A8.159,8.159,0,1,0,33.677,60.6h30.54a8.156,8.156,0,1,0,9.265-1.516l.8-3.536a3.5,3.5,0,0,0-3.409-4.271h-39.1l-.953-4.662h42.7A3.5,3.5,0,0,0,76.934,43.895Z" fill="#eba65e"/>
</svg>
