<svg xmlns="http://www.w3.org/2000/svg" width="69.593" height="61.86" viewBox="0 0 69.593 61.86">
  <path id="Icon_awesome-shopping-cart" data-name="Icon awesome-shopping-cart" d="M63.808,36.406,69.52,11.275a2.9,2.9,0,0,0-2.828-3.542H19.236L18.128,2.319A2.9,2.9,0,0,0,15.287,0H2.9A2.9,2.9,0,0,0,0,2.9V4.833a2.9,2.9,0,0,0,2.9,2.9h8.443L19.83,49.227a6.767,6.767,0,1,0,8.1,1.035h25.33A6.764,6.764,0,1,0,60.945,49l.667-2.933a2.9,2.9,0,0,0-2.828-3.542H26.353l-.791-3.866H60.981A2.9,2.9,0,0,0,63.808,36.406Z" fill="#fff"/>
</svg>
