<svg xmlns="http://www.w3.org/2000/svg" width="884" height="311" viewBox="0 0 884 311">
  <g id="Group_1" data-name="Group 1" transform="translate(-76 -664)">
    <rect id="Rectangle_3" data-name="Rectangle 3" width="884" height="311" rx="39" transform="translate(76 664)" fill="#2a588a"/>
    <g id="_圖層_1-2" transform="translate(102.915 690.915)">
      <path id="Path_1" data-name="Path 1" d="M240.97,0a26.054,26.054,0,0,1,26.063,26.063V180.344H0V26.063A26.08,26.08,0,0,1,26.063,0h84.754V82.7a8.9,8.9,0,0,0,8.9,8.9H185.7a15.111,15.111,0,0,1,15.106,15.106V126.97a8.9,8.9,0,0,1-8.9,8.9H75.248a8.9,8.9,0,0,1-8.9-8.9V91.6H44.069v48.7a17.811,17.811,0,0,0,17.8,17.8H205.2A17.81,17.81,0,0,0,223,140.3v-33.6a37.34,37.34,0,0,0-37.342-37.342H133.093V47.13h59.336V24.854H133.093V0ZM0,193.678v38.349A26.054,26.054,0,0,0,26.063,258.09H240.929a26.08,26.08,0,0,0,26.063-26.063V193.678H0ZM65.58,242.42H42.941V212.53H65.016v5H49.064v6.687H63.928v5.035H49.064v8.177H65.58v5Zm40.121-3.545q-3.867,4.109-10.393,4.109a13.956,13.956,0,0,1-10.473-4.069q-3.867-4.109-3.867-11.239a19.661,19.661,0,0,1,1.329-7.694,13.343,13.343,0,0,1,2.739-4.109,11.658,11.658,0,0,1,3.827-2.7,15.611,15.611,0,0,1,6.365-1.168,13.743,13.743,0,0,1,10.433,4.109c2.618,2.739,3.907,6.526,3.907,11.44s-1.289,8.58-3.867,11.319m28.278,3.545c-1.41-2.175-2.82-4.351-4.27-6.485a40.572,40.572,0,0,0-3.142-4.391,4.746,4.746,0,0,0-1.813-1.249,10.826,10.826,0,0,0-3.021-.322h-1.208V242.42H114.4V212.53h12.649a21.944,21.944,0,0,1,6.929.806,6.839,6.839,0,0,1,3.464,2.86,8.8,8.8,0,0,1,1.289,4.713,7.894,7.894,0,0,1-1.974,5.559,9.413,9.413,0,0,1-5.841,2.779,12.875,12.875,0,0,1,3.182,2.5,34.739,34.739,0,0,1,3.384,4.834l3.625,5.8h-7.13Zm34.643-8.3A13.019,13.019,0,0,1,165.4,239.4a10.678,10.678,0,0,1-4.23,2.377,18.83,18.83,0,0,1-5.358.645h-11.36V212.53H155.49a22.178,22.178,0,0,1,5.68.564,10.2,10.2,0,0,1,4.512,2.739,13.171,13.171,0,0,1,2.86,4.834,22.493,22.493,0,0,1,.967,7.09,19.9,19.9,0,0,1-.886,6.365m28.6,8.3H174.584V212.53h22.075v5H180.707v6.687h14.864v5.035H180.707v8.177h16.516Zm24.572,0c-1.41-2.175-2.82-4.351-4.27-6.485a40.575,40.575,0,0,0-3.142-4.391,4.746,4.746,0,0,0-1.813-1.249,10.827,10.827,0,0,0-3.021-.322h-1.208V242.42h-6.123V212.53h12.649a21.945,21.945,0,0,1,6.929.806,6.839,6.839,0,0,1,3.464,2.86,8.8,8.8,0,0,1,1.289,4.713,7.894,7.894,0,0,1-1.974,5.559,9.413,9.413,0,0,1-5.841,2.779,12.875,12.875,0,0,1,3.182,2.5,34.742,34.742,0,0,1,3.384,4.834l3.625,5.8H221.8ZM95.308,217.163a7.505,7.505,0,0,1,5.922,2.538c1.49,1.692,2.216,4.23,2.216,7.654s-.765,6.083-2.3,7.815a7.45,7.45,0,0,1-5.841,2.618,7.532,7.532,0,0,1-5.881-2.618c-1.531-1.732-2.336-4.31-2.336-7.694s.765-6,2.256-7.734a7.549,7.549,0,0,1,5.962-2.578m36.7,6.365a3.141,3.141,0,0,1-1.692,1.249,22.859,22.859,0,0,1-5.358.363h-4.431v-7.613H125.2c2.417,0,3.867,0,4.351.081a3.387,3.387,0,0,1,3.061,3.625,4.056,4.056,0,0,1-.6,2.3m87.816,0a3.141,3.141,0,0,1-1.692,1.249,22.858,22.858,0,0,1-5.358.363h-4.431v-7.613h4.673c2.417,0,3.867,0,4.351.081a3.387,3.387,0,0,1,3.061,3.625,4.056,4.056,0,0,1-.6,2.3m-58.732-4.31a7.221,7.221,0,0,1,1.732,2.9,18.273,18.273,0,0,1,.6,5.358,19.587,19.587,0,0,1-.6,5.478,6.3,6.3,0,0,1-1.571,2.9,5.278,5.278,0,0,1-2.457,1.249,15.83,15.83,0,0,1-3.666.282h-4.512V217.525h2.7a26.483,26.483,0,0,1,4.955.282,5.673,5.673,0,0,1,2.82,1.41" fill="#fff"/>
      <path id="Path_2" data-name="Path 2" d="M78.16,7.97h55.67V23.036H96.287V44.023h31.9V59.25h-31.9V83.54H135.16V98.767h-57Z" transform="translate(236.688 24.135)" fill="#fff"/>
      <path id="Path_3" data-name="Path 3" d="M97.88,20.18h33.475V33.07H97.88Z" transform="translate(296.404 61.11)" fill="#fff"/>
      <path id="Path_4" data-name="Path 4" d="M111.59,54.268c0-29.567,16.556-46.728,40.6-46.728s40.6,17.281,40.6,46.728-16.556,47.453-40.6,47.453S111.59,83.714,111.59,54.268Zm62.639,0c0-19.5-8.58-31.138-22.075-31.138S130.08,34.771,130.08,54.268s8.58,31.783,22.075,31.783S174.229,73.643,174.229,54.268Z" transform="translate(337.922 22.833)" fill="#fff"/>
      <path id="Path_5" data-name="Path 5" d="M138.131,14.752h14.7l1.208,12.125h.483c5.035-8.943,12.367-13.857,19.5-13.857a19.05,19.05,0,0,1,8.1,1.49L178.937,30.1a22.074,22.074,0,0,0-7.13-1.088c-5.4,0-11.883,3.545-15.831,13.495V83.434H138.05V14.752Z" transform="translate(418.049 39.428)" fill="#fff"/>
      <path id="Path_6" data-name="Path 6" d="M152.29,69.846c0-22.437,13.978-36.174,28.8-36.174,7.734,0,12.528,2.941,17.4,7.493l-.725-10.8V6.2h18.047v97.886H201.233l-1.49-7.13h-.363c-5.035,4.914-11.883,8.822-19.013,8.822-17.039,0-28.077-13.454-28.077-35.932Zm45.519,14.018V53.693a18.359,18.359,0,0,0-12.77-5.156c-7.734,0-14.22,7.372-14.22,21.108s5.156,21.35,14.22,21.35C189.833,90.954,193.862,88.98,197.809,83.865Z" transform="translate(461.171 18.775)" fill="#fff"/>
      <path id="Path_7" data-name="Path 7" d="M174.09,49.194c0-22.316,15.589-36.174,32.025-36.174,18.892,0,28.681,13.857,28.681,32.87a34.139,34.139,0,0,1-.846,8.218h-42.3c1.49,11.279,8.822,17.16,19.013,17.16a28.436,28.436,0,0,0,15.468-4.794l6.123,11.037a43.236,43.236,0,0,1-24.049,7.613c-19.134,0-34.119-13.333-34.119-35.932Zm45.277-6.969c0-9.305-4.189-15.227-13.011-15.227-7.251,0-13.615,5.156-14.945,15.227Z" transform="translate(527.187 39.428)" fill="#fff"/>
      <path id="Path_8" data-name="Path 8" d="M195.16,14.752h14.7l1.208,12.125h.483c5.035-8.943,12.407-13.857,19.5-13.857a19.051,19.051,0,0,1,8.1,1.49L235.966,30.1a22.074,22.074,0,0,0-7.13-1.088c-5.4,0-11.883,3.545-15.831,13.495V83.434H195.12V14.752h.04Z" transform="translate(590.871 39.428)" fill="#fff"/>
      <path id="Path_9" data-name="Path 9" d="M140.353,56.629a5.869,5.869,0,0,1-3.827,1.934v59.094c-.161.806-5.317,3.263-9.305,3.263h-1.772v-6.647H89.436v3.021c0,1.329-4.351,3.907-9.064,3.907H78.6V49.459l11.642,4.713h7.976a153.825,153.825,0,0,0,2.135-15.952L116.224,40.8c-.282,1.168-1.168,1.934-3.263,2.054a92.412,92.412,0,0,1-11,11.36H124.6l5.317-5.962Zm-50.917.081V72.863h36.012V56.71H89.436Zm0,18.731V92.2h36.012V75.441Zm36.012,36.375V94.7H89.436v17.12Z" transform="translate(238.02 115.739)" fill="#fff"/>
      <path id="Path_10" data-name="Path 10" d="M141.7,95.782c-7.9,4.27-19.859,9.829-37.422,16.959a3.637,3.637,0,0,1-2.5,2.3L96.99,102.509c1.853-.161,4.431-.6,7.452-1.047v-60.5l10.272,4.632h9.668l4.713-5.076,9.225,7.372a5.932,5.932,0,0,1-3.625,1.853v46.2l6.929-1.329.081,1.168ZM113.586,48.128V63.4h11.722V48.128Zm11.722,17.724H113.586V81.361h11.722ZM113.586,99.931c3.625-.6,7.533-1.41,11.722-2.135V83.859H113.586V99.931Zm68.319-36.375A6,6,0,0,1,178,65.248c-.806,32.307-2.377,46.043-7.17,50.836-3.021,3.021-6.848,4.351-11.964,4.27,0-3.1-.362-5.519-1.611-6.848-1.41-1.611-4.431-2.82-7.976-3.625v-1.249c3.464.282,8.862.725,10.836.725a3.867,3.867,0,0,0,3.182-1.168c3.1-2.82,4.35-17.644,5.076-44.633H157.454c-.967,25.1-5.76,44.351-33.636,57.322l-.886-1.329C142.912,105.087,146.7,87,147.343,63.556H136.789l-.806-2.5h11.44c.081-7.09,0-14.542,0-22.639l13.656,1.329c-.161,1.329-1.047,2.216-3.182,2.578-.081,6.566-.081,12.77-.282,18.731h9.829l5.317-5.4,9.144,7.9Z" transform="translate(293.709 116.345)" fill="#fff"/>
      <path id="Path_11" data-name="Path 11" d="M127.589,98.783c3.384,8.943,2.659,15.871.081,19.336-1.853,2.377-6.4,2.5-7.976-.524-1.41-2.578-.081-5.237,2.3-7.009,2.054-2.135,4.713-7.372,4.27-11.8h1.329ZM154.579,87.5s5.4,3.988,8.782,7.009c-.282.967-1.047,1.41-2.3,1.41H120.338l-.725-2.578h17.039V81.7H122.191l-.725-2.578h15.186v-8.5h-5.76v.886c0,.725-3.625,2.659-7.009,2.659h-1.249V39.205l8.7,3.625h19.054l3.988-4.351,8.419,6.485a5.855,5.855,0,0,1-3.263,1.611V70.706c-.081.6-4.27,2.3-7.009,2.3h-1.329V70.625h-5.4v8.5h2.941l4.27-5.4s4.955,3.706,8.057,6.566c-.161.967-1.047,1.41-2.3,1.41H145.8V93.345h3.988l4.794-5.841ZM130.892,45.368v3.384l.725-.282c4.35,3.827,6.123,7.613,6.4,10.272V45.328h-7.13Zm0,22.719h7.09v-7.9c-.282,3.1-2.739,4.512-4.874,2.216,0-3.706-1.168-8.338-2.216-11.964Zm3.1,31.219c13.414,11.883,3.746,24.29-1.611,17.039a44.146,44.146,0,0,0,.363-16.677l1.249-.363Zm7.533-.443c17.281,9.144,8.782,23.162,2.3,16.395.6-5.317-1.168-11.642-3.384-15.952Zm2.941-53.5V68.088h6.727V54.875c-1.49,2.578-3.464,6.123-5.4,9.064l-1.168-.443c.806-4.431,1.692-11.36,2.054-14.824l4.512,1.611V45.409h-6.727Zm6.888,53.253c18.973,8.419,10.191,23.525,3.384,16.6.443-5.4-1.692-11.883-4.35-16.073l.967-.524Zm34.522-36.576V79.77h3.464l4.874-5.6,9.386,7.17a5.7,5.7,0,0,1-3.625,1.692v34.24c0,.443-3.263,2.377-8.5,2.377h-1.692v-6.566H173.471v4.955c0,.6-3.021,2.377-8.056,2.377h-1.772V75.62l10.715,4.189h1.611V38.641l13.052,1.168c-.081,1.329-.886,2.216-3.1,2.578v17.2h4.068l4.955-6.848s5.76,4.713,9.225,7.9c-.282.967-1.249,1.41-2.5,1.41H185.878ZM173.471,82.267v28.319h16.314V82.267Z" transform="translate(360.714 116.527)" fill="#fff"/>
      <path id="Path_12" data-name="Path 12" d="M191.362,66.025c-.282,1.168-1.329,1.611-4.189,1.853,8.5,6.2,24.935,9.386,37.986,10.635l-.081,1.329c-3.827,1.249-6.485,5.237-7.009,8.862-13.495-3.827-26.063-10.635-32.307-19.779a70.868,70.868,0,0,1-14.018,10.554h13.213l3.827-5.237s4.351,3.746,6.929,6.4c-.161.967-1.047,1.41-2.3,1.41H171.422L170.9,80q-3.746,1.994-7.734,3.988l6.2,2.3h26.345l4.35-4.431,8.862,6.566a3.617,3.617,0,0,1-2.5,1.249v9.386l.725-.886,11.279,6.647c-.443.806-1.047,1.249-3.1.967a84.286,84.286,0,0,1-11,3.384c20.3,7.09,9.386,15.791,2.3,11.078-6.123-4.512-17.281-10.554-31.219-15.428l.443-1.329a153.93,153.93,0,0,1,22.518,3.907c1.41-1.249,2.82-2.659,4.189-4.069a15.566,15.566,0,0,1-4.35.806h-1.772v-2.739h-28.2v9.668c4.431-.725,9.386-1.611,14.461-2.5l.161,1.168c-4.069,2.216-11.642,6.566-20.584,10.917a6.752,6.752,0,0,1-1.934,2.135l-6.929-10.03c4.431-2.5,5.237-3.384,5.237-5.076V85.925a113.313,113.313,0,0,1-16.959,5.68l-.443-1.047c14.1-5.76,29.285-17.12,34.683-25.821-7.734,7.009-18.53,12.326-31.138,15.428l-.6-1.329a72.7,72.7,0,0,0,17.12-9.95,6.03,6.03,0,0,1-3.907-1.329,11.638,11.638,0,0,0-2.3-5.962,52.7,52.7,0,0,1-10.635,9.587l-.967-.806c3.988-5.317,7.976-14.9,9.95-21.994l8.419,2.216V38.19l11.279,1.047c-.081.886-.6,1.611-2.216,1.853v3.746h3.988l4.068-5.156s4.713,3.545,7.533,6.2c-.161.967-1.047,1.41-2.216,1.41H170.9v6.848h2.216l4.874-4.351,7.734,6.727c-.6.806-1.611,1.047-3.625,1.168a38.54,38.54,0,0,1-4.27,5.076l13.535,3.263ZM159.055,56.8c-.6.886-1.329,1.772-2.054,2.659,6.486.967,8.62,3.625,8.419,5.962a44.994,44.994,0,0,0,7.09-8.62Zm2.739-3.907-.886,1.329h.886Zm6.4,35.932V92.45h28.2V88.825Zm28.2,10.03V95.028H168.2v3.827ZM188.421,50.6A68.035,68.035,0,0,1,203.688,54.5a34.141,34.141,0,0,0,2.82-7.291H188.663l-.806-2.5h18.369L211.3,39.64l8.943,7.291c-.6.806-1.329,1.047-3.182,1.249a29.567,29.567,0,0,1-6.4,9.829c11.642,7.533,8.862,16.6,1.772,14.1a52.131,52.131,0,0,0-8.056-8.7,48.634,48.634,0,0,1-14.1,6.284l-.6-1.047a33.481,33.481,0,0,0,10.473-8.782,109,109,0,0,0-12.407-8.5l.685-.765Z" transform="translate(427.739 115.649)" fill="#fff"/>
      <path id="Path_13" data-name="Path 13" d="M197.244,101.7c-.524.886-1.329,1.329-3.384.886-6.566,5.76-17.845,12.085-29.285,15.348l-.725-1.047c8.782-5.76,17.926-15.186,22.075-22.2l11.319,7.009ZM222.38,73.579c24.935,9.064,15.952,27.956,7.009,20.222a29.826,29.826,0,0,0-1.49-7.452c-4.794.967-10.393,2.054-16.959,3.263v20.665c0,6.727-1.692,10.715-13.293,11.642-.161-2.941-.524-5.237-1.611-6.647-1.168-1.249-2.82-2.377-7.009-3.021v-1.168s7.613.443,9.386.443c1.329,0,1.692-.443,1.692-1.41V91.383c-6.2,1.168-12.971,2.216-20.222,3.384a5.074,5.074,0,0,1-2.216,2.135l-5.156-11.078a21.852,21.852,0,0,0,3.988-.806c7.613-2.5,17.2-7.734,25.62-13.213C196,73.417,188.906,75.27,181.01,76.962a4.65,4.65,0,0,1-1.772,1.692l-4.874-10.272a13.246,13.246,0,0,0,3.1-.6c7.976-2.739,18.61-10.917,23.847-16.073a286.218,286.218,0,0,1-31.863,6.566l-.363-1.329c15.348-4.512,34.442-12.77,43.908-18.812l10.111,8.056c-.967.967-2.659,1.168-5.317.282-3.907,1.41-8.7,3.021-13.938,4.431l9.668,5.6c-.524.806-1.692,1.41-3.625.967-5.68,3.545-15.791,8.056-24.854,11.078,6.284-.282,14.743-.806,23.606-1.329a89.149,89.149,0,0,0,11-9.386l11.078,8.056c-.524.806-2.054,1.329-3.988.725-8.943,6.042-27.231,14.3-42.861,19.618,10.554-.282,26.425-1.047,43.1-1.934a52.2,52.2,0,0,0-5.519-10.111l.926-.6Zm-6.848,21.753c34.522,4.955,30.091,26.989,18.812,21.753-3.988-7.291-12.77-15.791-19.537-21.027l.725-.725Z" transform="translate(496.178 115.467)" fill="#fff"/>
      <path id="Path_14" data-name="Path 14" d="M193.982,96.872c3.464,9.225,2.82,16.234.282,19.7-1.934,2.377-6.647,2.5-8.258-.6-1.329-2.659-.081-5.4,2.377-7.09,2.135-2.216,4.794-7.613,4.27-11.964h1.329Zm-8.057-11.44a11.934,11.934,0,0,0,3.1-1.168c4.189-3.1,9.225-9.305,13.575-15.509-3.021,1.249-6.4,2.5-10.03,3.827a4.758,4.758,0,0,1-2.216,1.934l-4.431-10.554a11.591,11.591,0,0,0,2.659-.967c4.431-4.431,10.191-17.281,11.883-24.049l11.883,5.962a2.724,2.724,0,0,1-2.941,1.249,99.506,99.506,0,0,1-16.959,18.288c3.625,0,8.177,0,12.971-.081a74.326,74.326,0,0,0,4.632-8.943l10.715,7.372c-.443.725-1.692,1.249-3.464.886-4.955,6.4-14.623,15.63-23.323,21.753,4.632-.282,10.635-.725,16.757-1.047a43.3,43.3,0,0,0-3.182-8.177l.967-.524c18.369,8.338,10.191,22.075,3.464,15.791a23.983,23.983,0,0,0-.6-4.632c-4.794,2.135-11.722,4.874-19.336,7.452a6,6,0,0,1-2.377,1.934l-3.746-10.8Zm15.348,10.111c14.9,10.917,4.874,23.4-.886,16.073a44.774,44.774,0,0,0-.282-15.791l1.168-.282Zm64.774,14.7c2.3.967,2.739,2.135,2.739,3.907,0,3.545-3.021,5.237-12.326,5.237h-4.794c-6.929,0-7.976-2.054-7.976-7.976V78.06l-4.955,1.249c-1.047,16.314-4.632,31.944-29.89,42.78l-.967-1.249c17.644-11.883,20.061-25.459,20.584-39.034l-4.632.967a6.146,6.146,0,0,1-2.739,2.659l-4.794-11.8a9.358,9.358,0,0,0,3.182-1.329c3.182-3.3,7.291-10.111,10.635-17.281H217.87l-.725-2.5h14.1A98.365,98.365,0,0,0,236.48,38.06l13.495,5.76a3.131,3.131,0,0,1-3.263,1.49c-1.329,2.216-2.941,4.632-4.713,7.17h11.883l5.237-7.09s6.042,4.874,9.668,8.177c-.282.967-1.249,1.41-2.5,1.41H240.227a125.107,125.107,0,0,1-16.4,18.53c7.9-.161,19.537-.725,31.944-1.329A63.787,63.787,0,0,0,248.4,61.263l.886-.6c27.231,8.258,19.416,28.037,9.829,20.866a31.674,31.674,0,0,0-2.3-7.009l-3.545.967v33.676c0,1.168.161,1.611,1.49,1.611h2.659a18.683,18.683,0,0,0,2.377-.081,1.661,1.661,0,0,0,1.49-1.047c.806-1.41,2.135-6.566,3.384-11.36h1.047l.322,11.964ZM210.055,94.012c17.2,5.962,9.064,18.892,2.659,12.971.161-4.27-1.772-9.305-3.625-12.407l.967-.564Z" transform="translate(561.636 115.255)" fill="#fff"/>
    </g>
  </g>
</svg>
