<svg xmlns="http://www.w3.org/2000/svg" width="540.752" height="178.56" viewBox="0 0 540.752 178.56">
  <g id="logo-main" transform="translate(-280.925 -377.568)">
    <path id="Path_74" data-name="Path 74" d="M181.844,239.76h-13.1v1.757h-2.895V222.145a23.153,23.153,0,0,1-1.552,2.208c-.207-.311-.552-.8-.9-1.275v2.895h-2.275V237.9c0,1.687-.342,2.584-1.379,3.068s-2.688.586-5.238.586a12.431,12.431,0,0,0-.863-3c1.757.034,3.413.034,3.929.034.518-.034.692-.171.692-.689V227.421a35.69,35.69,0,0,1-6.274,10.789A14.442,14.442,0,0,0,149.856,236c2.343-2.172,4.756-6.17,6.308-10.03h-5.481c.656-2.931,1.516-7.619,2.034-11.411h-2.034v-2.929h12.753v2.929h-2.309v8.446h2.242a9.63,9.63,0,0,0-1-1.171,33.455,33.455,0,0,0,5.722-11.929l2.827.761c-.552,1.791-1.207,3.652-1.967,5.479h5.414a21.039,21.039,0,0,0-1.69-4.963l2.827-.827a22.918,22.918,0,0,1,1.895,5.134l-1.964.656h6.274v2.861H176.64v4.1h4.274v2.724H176.64v4.136h4.274v2.721H176.64v4.138h5.2Zm-26.4-25.2c-.415,2.688-.93,5.826-1.415,8.446h4.242v-8.446Zm18.232,4.447h-4.929v4.1h4.929Zm0,6.826h-4.929v4.136h4.929Zm-4.927,11h4.929v-4.138h-4.929Z" transform="translate(335.289 314.115)" fill="#302d2c"/>
    <path id="Path_75" data-name="Path 75" d="M176.526,236.226c2.172,1.068,5,1.376,8.617,1.376,1.967,0,11.444,0,13.927-.1a11.159,11.159,0,0,0-1.311,3.17H185.11c-7.067,0-11.273-1.068-13.995-5.792a19.659,19.659,0,0,1-2.345,6.655,6.756,6.756,0,0,0-2.1-1.895c2.309-4.035,2.516-9.586,2.377-14.2l2.69.137c.034,1.379.034,2.76-.034,4.172a12.486,12.486,0,0,0,2,4.136v-11h-6.134v-2.827h5.272V216.54h-4.411v-2.825h4.411v-3.792h2.895v3.792h3.519v2.825h-3.519v3.517h4.138v2.827h-3.343v4.033H179.8v2.791h-3.273Zm4.654-22.235h-1.656v-2.724H191v2.656h5.033l.518-.1,1.654.55a63.038,63.038,0,0,1-2.379,12,56.641,56.641,0,0,1,3.068,7.653l-2.516,1.034c-.412-1.415-1.034-3.206-1.793-5.134a23.54,23.54,0,0,1-3.618,6.236,11.153,11.153,0,0,0-1.62-1.859v2.516h-2.584v-4.688l-6.725,1.825-.62-2.654,1.759-.378Zm5.585,0h-3.035v3.517h3.035Zm-3.035,9.653h3.035v-3.62h-3.035Zm3.035,5.963V226.16h-3.035v4.17Zm2.584,3.963a24.191,24.191,0,0,0,3.758-7.238c-1.1-2.379-2.311-4.826-3.519-7l2.278-.757c.757,1.309,1.552,2.755,2.275,4.2a56.527,56.527,0,0,0,1.138-6.308h-5.033V213.99h-.9Z" transform="translate(356.352 314.135)" fill="#302d2c"/>
    <path id="Path_76" data-name="Path 76" d="M190.876,221.679v19.854H187.74V221.679h-4v-2.931h4v-8.824h3.136v8.824h3.55v2.931Zm24.441,12.167h-4.758v4.515c0,1.482-.275,2.275-1.413,2.724a16.546,16.546,0,0,1-5.2.448,11.453,11.453,0,0,0-.863-2.724c1.757.07,3.481.07,3.963.034.518-.034.656-.135.656-.516v-4.481h-8.169c1.516,1.068,3.273,2.345,4.274,3.17l-2,2.172a60.661,60.661,0,0,0-5.1-4.066l1.275-1.275h-4.584V231.26H207.7v-1.516h2.861v1.516h4.758Zm-12.17-17.752H194.53v-2.516h8.617v-3.654h2.965v3.654h5c-1.171-.622-2.516-1.345-3.62-1.9l1.482-1.757c1.622.725,3.861,1.793,5.033,2.48l-.894,1.174h1.825v2.516h-8.824v1.446h7.479V227.4c0,1.205-.241,1.654-1.068,2a12.036,12.036,0,0,1-3.722.311,10.253,10.253,0,0,0-.9-1.964c1.1.034,2.068.034,2.413,0,.345,0,.448-.106.448-.417v-.858h-4.654v2.55h-2.965v-2.55h-4.618v3.136h-2.724V217.541h7.342Zm-4.618,5.17h4.621v-1.586h-4.621Zm4.618,1.895h-4.621v1.449h4.621Zm2.965-1.895h4.654v-1.586h-4.654Zm4.654,1.895h-4.654v1.449h4.654Z" transform="translate(377.738 314.135)" fill="#302d2c"/>
    <path id="Path_77" data-name="Path 77" d="M218.07,237.239h13.064v2.9H202.041v-2.9h12.652v-5.067H205.42v-2.791h9.273v-4.688H206.97V221.9a40.952,40.952,0,0,1-4.481,2.76,12.059,12.059,0,0,0-2-2.622,41.368,41.368,0,0,0,12.167-8.685h-5.481v-3h11a33.227,33.227,0,0,0,14.409,11.273,15.375,15.375,0,0,0-2.172,2.895A33.9,33.9,0,0,1,225.964,222v2.69H218.07v4.688h9.376v2.791H218.07Zm-11.03-15.373h18.716a42.514,42.514,0,0,1-9.306-8.513,50.017,50.017,0,0,1-9.41,8.513" transform="translate(398.725 314.671)" fill="#302d2c"/>
    <path id="Path_78" data-name="Path 78" d="M249.066,221.764a87.615,87.615,0,0,1-5.828,7.1,19.224,19.224,0,0,0,6.722,7.72A6.933,6.933,0,0,0,248,239.068a22.233,22.233,0,0,1-7.308-8.964v7.689c0,1.723-.412,2.62-1.449,3.138-1.068.55-2.688.653-5.344.653a13.557,13.557,0,0,0-1.1-3.068c1.863.07,3.517.034,4.035.034.552-.034.757-.207.757-.757V230.76c-2.654,2.656-5.378,5.24-7.653,7.31l-1.964-2.793.482-.378c-3.55,1.171-7.272,2.343-10.169,3.24l-.687-3.068c1.205-.311,2.721-.757,4.341-1.241v-8.962h-3.688V221.9h3.688v-6.858h-3.929v-2.967h10.651v2.967H224.9V221.9h3.24v2.965H224.9v8.065l3.929-1.205.415,2.552c2.275-1.829,5.414-4.483,8.342-7v-8.651h-8.171v-2.967h8.171v-5.722h3.1v5.722h8.723v2.967h-8.723v1.413a40.328,40.328,0,0,0,1.449,6.137,50.208,50.208,0,0,0,4.136-5.862Zm-16.79-1.241a26.344,26.344,0,0,1,3.586,6.134l-2.654,1.275a25.536,25.536,0,0,0-3.413-6.308Zm13.789-4.9a22.446,22.446,0,0,0-4-3.758l1.793-1.654A23,23,0,0,1,248,213.731Z" transform="translate(420.152 314.154)" fill="#302d2c"/>
    <path id="Path_79" data-name="Path 79" d="M247.274,217.23c-.588,1.174-1.174,2.345-1.827,3.447h16.3v17.169c0,1.721-.345,2.688-1.586,3.17-1.205.518-3.136.518-6,.518a12,12,0,0,0-1-3.1c2.034.1,4.1.1,4.688.068.588,0,.759-.171.759-.687v-2.967H244.721a12.52,12.52,0,0,1-3.618,6.963,11.6,11.6,0,0,0-2.309-2.516c2.895-2.654,3.17-6.411,3.17-9.617v-4.066a26.391,26.391,0,0,1-5,4.618,17.69,17.69,0,0,0-2.1-2.48,27.989,27.989,0,0,0,8.858-10.516h-8.1v-3h9.444a37.268,37.268,0,0,0,1.449-4.31l3.276.759c-.381,1.169-.759,2.377-1.241,3.55h17.166v3Zm11.341,14.927v-3H245.169v.586c0,.759-.034,1.586-.1,2.413Zm0-8.653H245.169v2.965h13.445Z" transform="translate(441.79 314.135)" fill="#302d2c"/>
    <path id="Path_80" data-name="Path 80" d="M263.419,211.7c-.966,2.827-2.138,6.207-3.206,8.86A11.142,11.142,0,0,1,263,227.9c0,2-.414,3.447-1.412,4.206a3.908,3.908,0,0,1-1.863.689c-.62.068-1.482.068-2.239.068a6.108,6.108,0,0,0-.757-2.791,16.176,16.176,0,0,0,1.791.036,1.877,1.877,0,0,0,1-.277,2.948,2.948,0,0,0,.658-2.275,10.029,10.029,0,0,0-2.76-6.619c.827-2.275,1.723-5.17,2.345-7.446h-4.24v27.266h-2.794V210.627h8.137l.446-.137ZM282.1,229a49.643,49.643,0,0,1-5.447,3.755,14.2,14.2,0,0,0,6.17,5.136,11.653,11.653,0,0,0-2.136,2.724c-5.276-2.654-8.275-7.894-9.964-14.65h-2.791v10.584l5.515-1.277a19.019,19.019,0,0,0,.173,2.9c-6.9,1.827-8.065,2.239-8.791,2.724a10.446,10.446,0,0,0-1.412-2.586,2.98,2.98,0,0,0,1.412-2.654V210.7h15.236v15.27h-6.549a28.97,28.97,0,0,0,1.757,4.551,38.819,38.819,0,0,0,4.688-3.758Zm-14.168-12.03h9.032v-3.481h-9.032Zm0,6.2h9.032v-3.586h-9.032Z" transform="translate(464.174 314.844)" fill="#302d2c"/>
    <path id="Path_81" data-name="Path 81" d="M281.971,211.477a46.445,46.445,0,0,1-10.135,14.754,26.409,26.409,0,0,0-2.827-2.654,35.731,35.731,0,0,0,9.446-13.2Zm9.685,16.1a105.289,105.289,0,0,1,7.619,11.652l-3.239,1.757c-.484-1-1.07-2.1-1.827-3.343-17.27,1.275-19.34,1.413-20.854,2a18.055,18.055,0,0,0-1.277-3.447c1.034-.277,1.964-1.309,3.309-2.895a68.536,68.536,0,0,0,8.547-13.271l3.724,1.516a86.729,86.729,0,0,1-9.721,13.994l14.443-.861c-1.275-2-2.618-4-3.825-5.722Zm.655-17.27c1.586,5.17,4.893,10.2,9,12.753a17.93,17.93,0,0,0-2.483,3.172c-3.893-2.931-7.065-7.756-8.962-12.652h-6v-3.273Z" transform="translate(484.564 314.614)" fill="#302d2c"/>
    <path id="Path_82" data-name="Path 82" d="M314.612,235.968c0,2.032-.412,3.1-1.687,3.618-1.311.586-3.449.656-6.517.622a14.913,14.913,0,0,0-1.1-3.483c2.206.1,4.515.1,5.17.07s.863-.207.863-.861V213.94H286.968v-3.068h27.644Zm-7-16.1h-20.37v-2.827h20.37Zm-15.27,14.373v2.516h-3.1V223.076h16.234v11.167Zm0-2.791h10v-5.619h-10Z" transform="translate(507.065 315.323)" fill="#302d2c"/>
    <path id="Path_83" data-name="Path 83" d="M199.857,228.224H159.144l-6.3,15.972H139.011l33.966-81.43h13.046L220.1,244.2H206.269ZM195.7,217.766l-16.2-40.6-16.193,40.6Z" transform="translate(321.702 255.055)" fill="#302d2c"/>
    <path id="Path_84" data-name="Path 84" d="M177.8,170.8h12.6v10.8c2.474-6.862,9.225-13.161,22.607-11.248L211.648,182.5c-14.4-2.7-21.258,5.06-21.258,20.807V235.13H177.8Z" transform="translate(370.292 264.119)" fill="#302d2c"/>
    <path id="Path_85" data-name="Path 85" d="M204.2,217.112v-28.9h-9.333v-9.784H204.2V166.615l12.71-2.7v14.51h19.007v9.784H216.91V215.65c0,13.274,3.487,17.885,13.271,17.885a43.233,43.233,0,0,0,5.175-.563l1.685,9.784a44.547,44.547,0,0,1-8.772.9c-16.533,0-24.069-6.86-24.069-26.543" transform="translate(391.678 256.493)" fill="#302d2c"/>
    <path id="Path_86" data-name="Path 86" d="M217.627,170.8h12.6v10.8c2.474-6.862,9.225-13.161,22.607-11.248L251.48,182.5c-14.4-2.7-21.258,5.06-21.258,20.807V235.13h-12.6Z" transform="translate(420.194 264.119)" fill="#302d2c"/>
    <path id="Path_87" data-name="Path 87" d="M236.494,166.969c0-4.276,3.149-6.749,7.425-6.749,4.046,0,7.533,2.474,7.533,6.749,0,4.161-3.487,6.747-7.533,6.747-4.276,0-7.425-2.586-7.425-6.747m1.126,16.083H250.1v64.331H237.62Z" transform="translate(443.83 251.865)" fill="#302d2c"/>
    <path id="Path_88" data-name="Path 88" d="M261.818,234.064v12.147h-12.6V161.068h12.6v33.4c3.6-8.772,12.6-13.722,22.717-13.722,15.862,0,29.582,11.248,29.582,33.4,0,22.267-13.72,33.628-29.467,33.628-10.124,0-19.234-5.062-22.832-13.72m39.7-19.908c0-14.06-8.1-22.72-20.133-22.72-11.809,0-19.908,8.549-19.908,22.72,0,14.281,8.1,22.83,20.134,22.83,11.922,0,19.908-8.66,19.908-22.83" transform="translate(459.777 252.928)" fill="#302d2c"/>
    <path id="Path_89" data-name="Path 89" d="M283.613,170.8h12.6v10.8c2.474-6.862,9.225-13.161,22.607-11.248L317.466,182.5c-14.4-2.7-21.258,5.06-21.258,20.807V235.13h-12.6Z" transform="translate(502.862 264.119)" fill="#302d2c"/>
    <path id="Path_90" data-name="Path 90" d="M226.252,304.986,143.015,159.642,60.727,304.986Z" transform="translate(223.627 251.141)" fill="#d5d400"/>
    <path id="Path_91" data-name="Path 91" d="M194.743,285.7,142.584,175.04,84.054,285.7Z" transform="translate(252.851 270.431)" fill="#6dc7f3"/>
    <path id="Path_92" data-name="Path 92" d="M59.205,323.458H73.213l73.726-133.313,16.795,30.368L108.195,323.458h13.931l22.328-41.384h53.324l22.886,41.384h14.008L153.943,177.48l14.74-26.651L157.955,144.9l-11.016,19.917L135.922,144.9l-10.728,5.932,14.74,26.651ZM191,269.814H151.068l19.717-36.547Z" transform="translate(221.72 232.67)" fill="#302d2c"/>
  </g>
</svg>
